<?xml version="1.0" encoding="UTF-8"?>
<!DOCTYPE svg PUBLIC "-//W3C//DTD SVG 1.1//EN" "http://www.w3.org/Graphics/SVG/1.1/DTD/svg11.dtd">
<svg xmlns="http://www.w3.org/2000/svg" version="1.1" width="1000px" height="623px" style="shape-rendering:geometricPrecision; text-rendering:geometricPrecision; image-rendering:optimizeQuality; fill-rule:evenodd; clip-rule:evenodd" xmlns:xlink="http://www.w3.org/1999/xlink">
<g><path style="opacity:0.988" fill="#007fff" d="M 477.5,1.5 C 592.2,-0.4878 684.033,43.8455 753,134.5C 775.47,166.281 791.637,201.114 801.5,239C 750.501,239.5 699.501,239.667 648.5,239.5C 623.944,164.122 572.61,118.955 494.5,104C 395.989,91.8425 321.155,128.009 270,212.5C 265.101,221.13 260.601,229.964 256.5,239C 237.158,239.833 217.825,239.666 198.5,238.5C 230.944,128.223 301.277,53.723 409.5,15C 431.834,8.09959 454.501,3.59959 477.5,1.5 Z"/></g>
<g><path style="opacity:0.982" fill="#007fff" d="M 453.5,135.5 C 507.934,136.24 553.434,156.574 590,196.5C 600.432,209.36 608.265,223.693 613.5,239.5C 585.165,239.667 556.831,239.5 528.5,239C 503.083,219.486 475.083,214.819 444.5,225C 434.94,228.111 426.274,232.778 418.5,239C 376.833,239.667 335.167,239.667 293.5,239C 319.327,193.755 356.661,162.088 405.5,144C 421.292,139.138 437.292,136.305 453.5,135.5 Z"/></g>
<g><path style="opacity:0.837" fill="#007fff" d="M 767.5,261.5 C 770.167,261.5 772.833,261.5 775.5,261.5C 775.5,265.167 775.5,268.833 775.5,272.5C 772.833,272.5 770.167,272.5 767.5,272.5C 767.5,268.833 767.5,265.167 767.5,261.5 Z"/></g>
<g><path style="opacity:0.86" fill="#017fff" d="M 130.5,263.5 C 133.247,263.187 135.914,263.52 138.5,264.5C 149.072,288.972 159.072,313.639 168.5,338.5C 165.5,338.5 162.5,338.5 159.5,338.5C 156.925,330.848 153.925,323.348 150.5,316C 139.505,315.5 128.505,315.333 117.5,315.5C 115.167,322.994 112.334,330.327 109,337.5C 106.281,338.444 103.448,338.777 100.5,338.5C 110.217,313.398 120.217,288.398 130.5,263.5 Z M 133.5,275.5 C 134.497,275.47 135.164,275.97 135.5,277C 139.838,287.35 144.171,297.684 148.5,308C 139.149,308.832 129.816,308.665 120.5,307.5C 125.231,296.97 129.564,286.303 133.5,275.5 Z"/></g>
<g><path style="opacity:0.901" fill="#0080ff" d="M 178.5,263.5 C 191.837,263.333 205.171,263.5 218.5,264C 227.337,267.004 231.671,273.17 231.5,282.5C 231.787,290.094 228.787,295.928 222.5,300C 234.782,306.722 237.949,316.555 232,329.5C 229.408,332.762 226.241,335.262 222.5,337C 207.892,338.432 193.225,338.932 178.5,338.5C 178.5,313.5 178.5,288.5 178.5,263.5 Z M 186.5,270.5 C 196.58,270.077 206.58,270.577 216.5,272C 223.435,276.55 225.268,282.717 222,290.5C 220.833,293 219,294.833 216.5,296C 206.58,297.423 196.58,297.923 186.5,297.5C 186.5,288.5 186.5,279.5 186.5,270.5 Z M 186.5,304.5 C 197.172,304.333 207.839,304.5 218.5,305C 226.743,310.093 228.576,316.926 224,325.5C 222.457,327.378 220.624,328.878 218.5,330C 207.898,331.403 197.231,331.903 186.5,331.5C 186.5,322.5 186.5,313.5 186.5,304.5 Z"/></g>
<g><path style="opacity:0.871" fill="#017fff" d="M 269.5,263.5 C 285.703,260.445 298.036,265.779 306.5,279.5C 304.772,281.226 302.772,282.559 300.5,283.5C 290.616,270.113 278.283,267.279 263.5,275C 251.467,285.968 248.3,299.134 254,314.5C 264.182,332.337 278.016,335.837 295.5,325C 297.631,322.552 299.631,320.052 301.5,317.5C 303.71,318.766 305.71,320.266 307.5,322C 300.871,333.071 291.038,338.904 278,339.5C 255.972,335.965 244.139,322.965 242.5,300.5C 243.583,282.122 252.583,269.788 269.5,263.5 Z"/></g>
<g><path style="opacity:0.869" fill="#017fff" d="M 367.5,263.5 C 383.898,260.373 396.232,265.873 404.5,280C 402.63,281.366 400.63,282.533 398.5,283.5C 388.584,270.283 376.251,267.45 361.5,275C 349.467,285.968 346.3,299.134 352,314.5C 362.182,332.337 376.016,335.837 393.5,325C 395.333,322.5 397.167,320 399,317.5C 401.25,318.708 403.417,320.041 405.5,321.5C 401.305,330.524 394.305,336.024 384.5,338C 357.976,340.007 343.31,327.507 340.5,300.5C 341.583,282.122 350.583,269.788 367.5,263.5 Z"/></g>
<g><path style="opacity:0.883" fill="#007fff" d="M 735.5,264.5 C 738.167,264.5 740.833,264.5 743.5,264.5C 743.5,270.833 743.5,277.167 743.5,283.5C 747.5,283.5 751.5,283.5 755.5,283.5C 755.5,285.5 755.5,287.5 755.5,289.5C 751.5,289.5 747.5,289.5 743.5,289.5C 743.333,302.504 743.5,315.504 744,328.5C 745.594,330.297 747.594,331.297 750,331.5C 752.822,330.725 755.656,330.058 758.5,329.5C 760.775,334.115 759.442,336.948 754.5,338C 748.058,340.178 742.224,339.012 737,334.5C 735.533,319.597 735.033,304.597 735.5,289.5C 732.833,289.5 730.167,289.5 727.5,289.5C 727.5,287.5 727.5,285.5 727.5,283.5C 730.167,283.5 732.833,283.5 735.5,283.5C 735.5,277.167 735.5,270.833 735.5,264.5 Z"/></g>
<g><path style="opacity:0.879" fill="#007fff" d="M 432.5,282.5 C 459.043,282.22 469.876,295.22 465,321.5C 456.427,338.527 443.26,343.36 425.5,336C 410.89,324.282 408.056,310.115 417,293.5C 421.127,288.202 426.294,284.535 432.5,282.5 Z M 435.5,289.5 C 443.809,288.571 450.309,291.571 455,298.5C 460.937,310.064 459.104,320.231 449.5,329C 436.055,334.963 426.555,331.129 421,317.5C 418.25,303.993 423.084,294.66 435.5,289.5 Z"/></g>
<g><path style="opacity:0.857" fill="#007fff" d="M 501.5,282.5 C 502.833,282.5 504.167,282.5 505.5,282.5C 505.5,285.167 505.5,287.833 505.5,290.5C 496.255,290.706 489.755,295.04 486,303.5C 485.5,315.162 485.333,326.829 485.5,338.5C 482.833,338.5 480.167,338.5 477.5,338.5C 477.5,320.167 477.5,301.833 477.5,283.5C 480.167,283.5 482.833,283.5 485.5,283.5C 485.335,286.85 485.502,290.183 486,293.5C 489.782,287.708 494.948,284.042 501.5,282.5 Z"/></g>
<g><path style="opacity:0.879" fill="#017fff" d="M 534.5,282.5 C 557.223,281.723 568.056,292.723 567,315.5C 563.378,334.386 552.212,341.886 533.5,338C 529.396,335.894 525.896,333.061 523,329.5C 522.5,339.828 522.334,350.161 522.5,360.5C 519.833,360.5 517.167,360.5 514.5,360.5C 514.5,334.833 514.5,309.167 514.5,283.5C 516.833,283.5 519.167,283.5 521.5,283.5C 520.189,291.799 521.856,292.966 526.5,287C 529.099,285.205 531.766,283.705 534.5,282.5 Z M 536.5,289.5 C 550.394,289.891 558.06,297.058 559.5,311C 556.945,329.092 547.279,335.092 530.5,329C 527.628,326.463 525.128,323.63 523,320.5C 522.333,313.833 522.333,307.167 523,300.5C 523.792,298.413 524.959,296.579 526.5,295C 529.767,292.87 533.1,291.037 536.5,289.5 Z"/></g>
<g><path style="opacity:0.875" fill="#017fff" d="M 595.5,282.5 C 615.861,281 627.194,290.333 629.5,310.5C 626.959,332.877 614.626,342.044 592.5,338C 578.678,331.526 572.845,320.692 575,305.5C 577.258,293.588 584.092,285.922 595.5,282.5 Z M 598.5,289.5 C 612.394,289.891 620.06,297.058 621.5,311C 619.006,327.89 609.673,334.223 593.5,330C 579.709,318.437 579.042,306.104 591.5,293C 593.925,291.787 596.259,290.621 598.5,289.5 Z"/></g>
<g><path style="opacity:0.876" fill="#007fff" d="M 664.5,282.5 C 665.833,282.5 667.167,282.5 668.5,282.5C 668.5,285.167 668.5,287.833 668.5,290.5C 659.662,290.83 653.162,294.83 649,302.5C 648.5,314.495 648.333,326.495 648.5,338.5C 645.833,338.5 643.167,338.5 640.5,338.5C 640.5,320.167 640.5,301.833 640.5,283.5C 642.833,283.5 645.167,283.5 647.5,283.5C 647.335,287.182 647.501,290.848 648,294.5C 651.761,287.878 657.261,283.878 664.5,282.5 Z"/></g>
<g><path style="opacity:0.846" fill="#027fff" d="M 689.5,282.5 C 697.753,281.46 705.42,282.96 712.5,287C 716.816,291.609 718.983,297.109 719,303.5C 719.172,315.24 720.005,326.907 721.5,338.5C 715.451,339.947 711.951,337.614 711,331.5C 700.631,340.554 689.464,341.72 677.5,335C 668.276,321.005 671.609,311.339 687.5,306C 695.147,305.057 702.647,305.557 710,307.5C 711.2,293.374 704.7,287.541 690.5,290C 686.554,291.306 682.888,293.139 679.5,295.5C 675.874,293.497 675.207,290.997 677.5,288C 681.475,285.854 685.475,284.02 689.5,282.5 Z M 689.5,311.5 C 696.304,311.064 702.971,311.73 709.5,313.5C 712.358,322.948 709.025,329.115 699.5,332C 686.791,335.279 680.625,330.445 681,317.5C 683.322,314.605 686.155,312.605 689.5,311.5 Z"/></g>
<g><path style="opacity:0.874" fill="#017fff" d="M 807.5,282.5 C 828.217,280.557 839.55,289.89 841.5,310.5C 841.646,323.711 835.646,332.878 823.5,338C 801.653,342.164 789.32,333.164 786.5,311C 787.251,296.767 794.251,287.267 807.5,282.5 Z M 810.5,289.5 C 824.424,289.923 832.091,297.09 833.5,311C 831.649,326.876 822.983,333.543 807.5,331C 796.067,324.035 792.567,314.202 797,301.5C 799.85,295.514 804.35,291.514 810.5,289.5 Z"/></g>
<g><path style="opacity:0.902" fill="#0181ff" d="M 875.5,282.5 C 885.161,280.077 892.328,283.077 897,291.5C 898.061,296.104 898.727,300.771 899,305.5C 899.5,316.495 899.667,327.495 899.5,338.5C 896.5,338.5 893.5,338.5 890.5,338.5C 890.667,325.163 890.5,311.829 890,298.5C 888.823,292.825 885.323,289.825 879.5,289.5C 870.908,290.922 864.741,295.588 861,303.5C 860.5,315.162 860.333,326.829 860.5,338.5C 857.833,338.5 855.167,338.5 852.5,338.5C 852.5,320.167 852.5,301.833 852.5,283.5C 854.833,283.5 857.167,283.5 859.5,283.5C 859.335,286.85 859.502,290.183 860,293.5C 864.127,288.202 869.294,284.535 875.5,282.5 Z"/></g>
<g><path style="opacity:0.874" fill="#007fff" d="M 767.5,283.5 C 770.167,283.5 772.833,283.5 775.5,283.5C 775.5,301.833 775.5,320.167 775.5,338.5C 772.833,338.5 770.167,338.5 767.5,338.5C 767.5,320.167 767.5,301.833 767.5,283.5 Z"/></g>
<g><path style="opacity:0.95" fill="#007fff" d="M 198.5,382.5 C 212.167,382.5 225.833,382.5 239.5,382.5C 256.865,467.676 303.531,531.176 379.5,573C 458.818,614.407 540.818,621.407 625.5,594C 550.348,625.941 474.015,628.941 396.5,603C 292.354,563.69 226.354,490.19 198.5,382.5 Z"/></g>
<g><path style="opacity:0.991" fill="#007fff" d="M 270.5,382.5 C 311.835,382.333 353.168,382.5 394.5,383C 428.609,429.943 474.609,449.277 532.5,441C 570.525,433.501 600.858,414.168 623.5,383C 682.503,382.167 741.503,382.333 800.5,383.5C 784.885,445.933 753.552,498.766 706.5,542C 667.543,573.441 622.876,590.774 572.5,594C 479.703,600.81 399.87,572.31 333,508.5C 299.159,473.15 278.325,431.15 270.5,382.5 Z"/></g>
<g><path style="opacity:0.936" fill="#007fff" d="M 433.5,383.5 C 481.665,382.335 529.998,382.168 578.5,383C 546.102,411.514 509.436,418.514 468.5,404C 455.852,398.682 444.185,391.849 433.5,383.5 Z"/></g>
</svg>
