<?xml version="1.0" encoding="UTF-8"?>
<!DOCTYPE svg PUBLIC "-//W3C//DTD SVG 1.1//EN" "http://www.w3.org/Graphics/SVG/1.1/DTD/svg11.dtd">
<svg xmlns="http://www.w3.org/2000/svg" version="1.1" width="1000px" height="623px" style="shape-rendering:geometricPrecision; text-rendering:geometricPrecision; image-rendering:optimizeQuality; fill-rule:evenodd; clip-rule:evenodd" xmlns:xlink="http://www.w3.org/1999/xlink">
<g><path style="opacity:0.998" fill="#e83c95" d="M 478.5,1.5 C 591.711,-2.46783 682.544,40.1988 751,129.5C 784.774,177.08 803.941,230.08 808.5,288.5C 803.866,289.314 799.533,290.981 795.5,293.5C 759.564,244.853 710.898,219.187 649.5,216.5C 589.962,218.353 541.795,242.353 505,288.5C 503.612,287.446 502.112,287.28 500.5,288C 495.38,290.06 490.38,292.393 485.5,295C 484.277,297.052 483.277,299.219 482.5,301.5C 472.819,287.229 460.486,284.562 445.5,293.5C 440.662,292.169 436.162,290.169 432,287.5C 431.667,283.167 431.333,278.833 431,274.5C 426.453,271.067 421.286,269.234 415.5,269C 410.141,268.641 404.807,268.641 399.5,269C 348.412,226.607 328.245,172.44 339,106.5C 345.866,74.5944 360.7,47.0944 383.5,24C 414.128,11.5916 445.794,4.09156 478.5,1.5 Z"/></g>
<g><path style="opacity:0.997" fill="#e83c95" d="M 345.5,41.5 C 346.552,41.3505 347.552,41.5172 348.5,42C 311.561,103.619 310.061,166.119 344,229.5C 355.452,247.791 369.286,264.124 385.5,278.5C 371.968,290.863 368.802,305.53 376,322.5C 385.588,337.479 399.088,342.646 416.5,338C 423.594,333.903 429.761,328.736 435,322.5C 442.952,339.149 455.118,342.982 471.5,334C 476.93,330.138 480.93,325.138 483.5,319C 485.81,318.503 488.143,318.337 490.5,318.5C 489.894,322.651 487.727,325.985 484,328.5C 482.709,332.672 483.876,335.839 487.5,338C 493.083,338.191 498.583,338.691 504,339.5C 524.387,401.558 513.721,457.558 472,507.5C 426.436,553.521 371.936,569.355 308.5,555C 238.663,498.835 199.663,426.002 191.5,336.5C 197.349,338.466 203.349,338.966 209.5,338C 214.306,335.093 218.973,331.926 223.5,328.5C 223.269,330.991 223.769,333.658 225,336.5C 225.75,337.126 226.584,337.626 227.5,338C 235.5,338.667 243.5,338.667 251.5,338C 252.966,337.365 254.3,336.531 255.5,335.5C 256.59,336.727 257.924,337.56 259.5,338C 264.833,338.667 270.167,338.667 275.5,338C 276.966,337.365 278.3,336.531 279.5,335.5C 280.7,336.531 282.034,337.365 283.5,338C 289.167,338.667 294.833,338.667 300.5,338C 303.505,335.517 305.672,332.35 307,328.5C 313.871,337.792 323.038,340.959 334.5,338C 339.667,334.167 344.833,330.333 350,326.5C 350.895,323.534 350.395,320.867 348.5,318.5C 352.54,306.837 349.54,297.337 339.5,290C 326.067,286.292 315.234,290.126 307,301.5C 302.507,308.623 301.673,316.123 304.5,324C 304.167,324.5 303.833,325 303.5,325.5C 302.264,324.754 300.93,324.421 299.5,324.5C 299.666,316.493 299.5,308.493 299,300.5C 295.548,290.104 288.382,286.271 277.5,289C 275.359,290.308 273.359,291.808 271.5,293.5C 264.03,287.304 256.363,286.97 248.5,292.5C 247.082,290.077 245.082,288.411 242.5,287.5C 235.863,289.568 229.697,292.568 224,296.5C 223.193,293.027 221.027,290.86 217.5,290C 211.569,288.529 205.569,288.196 199.5,289C 196.302,289.848 193.469,291.348 191,293.5C 197.752,196.142 239.919,118.309 317.5,60C 327.009,53.9703 336.343,47.8037 345.5,41.5 Z M 323.5,300.5 C 330.179,299.501 333.846,302.334 334.5,309C 329.511,309.499 324.511,309.666 319.5,309.5C 319.482,305.871 320.816,302.871 323.5,300.5 Z"/></g>
<g><path style="opacity:0.99" fill="#e83c95" d="M 631.5,233.5 C 678.614,229.929 720.114,243.262 756,273.5C 755.766,281.102 759.266,286.102 766.5,288.5C 758.962,292.55 750.962,293.55 742.5,291.5C 742.666,286.821 742.499,282.155 742,277.5C 739.441,274.651 736.274,273.817 732.5,275C 726.653,280.547 721.153,286.38 716,292.5C 714.956,294.715 714.29,297.048 714,299.5C 711.532,294.011 707.365,290.511 701.5,289C 691.309,286.305 682.809,288.805 676,296.5C 670.195,287.988 662.861,286.322 654,291.5C 653.204,289.033 651.537,287.7 649,287.5C 642.563,289.718 636.563,292.718 631,296.5C 631.048,304.032 629.714,304.365 627,297.5C 615.062,286.023 602.562,285.523 589.5,296C 585.518,300.126 582.685,304.959 581,310.5C 578.72,294.196 569.553,287.029 553.5,289C 551.833,290.167 550.167,291.333 548.5,292.5C 547.082,290.077 545.082,288.411 542.5,287.5C 537.237,289.864 531.904,291.698 526.5,293C 524.789,291.867 524.289,290.367 525,288.5C 553.729,257.052 589.229,238.719 631.5,233.5 Z"/></g>
<g><path style="opacity:0.962" fill="#e83c96" d="M 765.5,269.5 C 772.827,268.329 775.994,271.329 775,278.5C 772.459,283.069 768.625,284.569 763.5,283C 759.188,277.731 759.855,273.231 765.5,269.5 Z"/></g>
<g><path style="opacity:0.966" fill="#e83c94" d="M 405.5,272.5 C 412.96,272.632 420.293,273.632 427.5,275.5C 427.5,281.167 427.5,286.833 427.5,292.5C 425.801,292.66 424.134,292.494 422.5,292C 415.61,280.695 406.61,278.362 395.5,285C 387.678,296.682 387.512,308.515 395,320.5C 401.606,326.977 409.106,328.144 417.5,324C 420.601,322.034 423.768,320.2 427,318.5C 428.394,319.613 429.561,320.947 430.5,322.5C 425.642,326.525 420.642,330.358 415.5,334C 392.104,338.919 379.104,329.586 376.5,306C 378.486,288.181 388.152,277.015 405.5,272.5 Z"/></g>
<g><path style="opacity:0.962" fill="#e83c95" d="M 148.5,272.5 C 150.446,274.353 151.946,276.686 153,279.5C 159.069,294.54 165.236,309.54 171.5,324.5C 174.341,326.086 177.007,327.92 179.5,330C 178.833,331 178.167,332 177.5,333C 168.84,333.5 160.173,333.666 151.5,333.5C 151.343,332.127 151.51,330.793 152,329.5C 154.544,327.998 156.71,326.164 158.5,324C 156.829,320.316 155.163,316.649 153.5,313C 145.833,312.333 138.167,312.333 130.5,313C 128.833,316.667 127.167,320.333 125.5,324C 129.173,326.335 133.173,327.835 137.5,328.5C 137.579,329.93 137.246,331.264 136.5,332.5C 128.193,333.498 119.86,333.831 111.5,333.5C 111.343,332.127 111.51,330.793 112,329.5C 114.816,327.683 117.316,325.517 119.5,323C 125.862,307.775 132.362,292.609 139,277.5C 142.174,275.729 145.34,274.063 148.5,272.5 Z M 141.5,285.5 C 145.191,292.191 148.524,299.191 151.5,306.5C 145.537,307.496 139.537,307.829 133.5,307.5C 136.167,300.167 138.833,292.833 141.5,285.5 Z"/></g>
<g><path style="opacity:0.922" fill="#e73c94" d="M 733.5,278.5 C 735.167,278.5 736.833,278.5 738.5,278.5C 738.5,284.167 738.5,289.833 738.5,295.5C 742.833,295.5 747.167,295.5 751.5,295.5C 751.5,297.167 751.5,298.833 751.5,300.5C 747.167,300.5 742.833,300.5 738.5,300.5C 738.334,308.507 738.5,316.507 739,324.5C 742.847,327.133 746.513,326.799 750,323.5C 751.236,324.399 752.07,325.566 752.5,327C 746.816,335.021 739.483,336.688 730.5,332C 729.299,331.097 728.465,329.931 728,328.5C 726.647,319.225 726.147,309.891 726.5,300.5C 723.833,300.5 721.167,300.5 718.5,300.5C 718.34,298.801 718.506,297.134 719,295.5C 724.044,289.961 728.877,284.294 733.5,278.5 Z"/></g>
<g><path style="opacity:0.972" fill="#e83c95" d="M 397.5,288.5 C 409.801,295.317 422.468,301.651 435.5,307.5C 434.365,311.642 433.698,315.642 433.5,319.5C 432.412,316.318 430.245,314.318 427,313.5C 422.058,316.721 416.891,319.555 411.5,322C 401.246,322.762 395.413,317.929 394,307.5C 392.811,300.697 393.978,294.363 397.5,288.5 Z"/></g>
<g><path style="opacity:0.972" fill="#e83c95" d="M 199.5,292.5 C 206.283,292.201 212.949,292.867 219.5,294.5C 219.5,299.167 219.5,303.833 219.5,308.5C 217.801,308.66 216.134,308.494 214.5,308C 210.561,302.376 205.228,300.043 198.5,301C 196.039,303.827 195.039,307.16 195.5,311C 194.471,319.133 197.805,324.299 205.5,326.5C 210.213,325.31 214.547,323.31 218.5,320.5C 219.5,321.833 220.5,323.167 221.5,324.5C 217.521,328.156 213.188,331.322 208.5,334C 188.834,335.847 180.667,327.014 184,307.5C 187.355,300.582 192.522,295.582 199.5,292.5 Z"/></g>
<g><path style="opacity:0.959" fill="#e73c94" d="M 241.5,291.5 C 243.29,293.83 244.79,296.497 246,299.5C 248.833,297.333 251.667,295.167 254.5,293C 261.619,291.067 266.953,293.234 270.5,299.5C 273.35,297.573 276.017,295.406 278.5,293C 286.921,290.459 292.421,293.292 295,301.5C 295.5,310.16 295.666,318.827 295.5,327.5C 297.5,327.833 299.5,328.167 301.5,328.5C 301.579,329.93 301.246,331.264 300.5,332.5C 294.872,333.495 289.206,333.829 283.5,333.5C 283.666,323.828 283.5,314.161 283,304.5C 278.885,301.843 274.885,302.177 271,305.5C 270.333,312.5 270.333,319.5 271,326.5C 273.185,327.67 275.351,328.836 277.5,330C 276.874,330.75 276.374,331.584 276,332.5C 270.593,333.473 265.093,333.807 259.5,333.5C 259.666,324.161 259.5,314.827 259,305.5C 258.626,304.584 258.126,303.75 257.5,303C 253.495,301.902 249.995,302.735 247,305.5C 246.5,312.826 246.334,320.159 246.5,327.5C 248.5,327.833 250.5,328.167 252.5,328.5C 252.579,329.93 252.246,331.264 251.5,332.5C 243.862,333.497 236.196,333.831 228.5,333.5C 228.472,329.845 230.139,327.178 233.5,325.5C 234.664,318.858 234.831,312.192 234,305.5C 232.581,304.54 231.081,303.707 229.5,303C 228.24,301.186 228.24,299.353 229.5,297.5C 233.592,295.454 237.592,293.454 241.5,291.5 Z"/></g>
<g><path style="opacity:0.966" fill="#e83c95" d="M 325.5,292.5 C 340.552,291.888 347.552,299.222 346.5,314.5C 337.5,314.5 328.5,314.5 319.5,314.5C 320.37,320.866 323.87,324.866 330,326.5C 335.085,324.957 339.752,322.624 344,319.5C 345.236,320.399 346.07,321.566 346.5,323C 342.815,327.345 338.482,331.012 333.5,334C 321.275,337.054 312.775,332.887 308,321.5C 305.665,306.828 311.499,297.161 325.5,292.5 Z M 323.5,300.5 C 320.816,302.871 319.482,305.871 319.5,309.5C 324.511,309.666 329.511,309.499 334.5,309C 333.846,302.334 330.179,299.501 323.5,300.5 Z"/></g>
<g><path style="opacity:0.962" fill="#e83c95" d="M 456.5,292.5 C 471.265,290.771 479.265,297.271 480.5,312C 476.772,329.533 466.105,336.533 448.5,333C 439.956,327.404 436.789,319.571 439,309.5C 442.084,300.915 447.917,295.248 456.5,292.5 Z M 455.5,300.5 C 461.362,300.189 465.196,302.856 467,308.5C 467.287,310.891 467.787,313.224 468.5,315.5C 468.432,319.814 466.765,323.314 463.5,326C 458.042,326.851 454.209,324.685 452,319.5C 450.637,315.239 450.304,310.905 451,306.5C 451.804,303.854 453.304,301.854 455.5,300.5 Z"/></g>
<g><path style="opacity:0.962" fill="#e83d95" d="M 501.5,291.5 C 503.511,293.667 504.678,296.334 505,299.5C 507.167,297.333 509.333,295.167 511.5,293C 517.833,291.024 522.5,292.857 525.5,298.5C 523.808,300.359 522.308,302.359 521,304.5C 519.211,306.229 517.044,306.896 514.5,306.5C 513.401,301.927 510.901,301.261 507,304.5C 506.5,311.826 506.334,319.159 506.5,326.5C 509.789,327.374 513.123,328.041 516.5,328.5C 516.579,329.93 516.246,331.264 515.5,332.5C 506.19,333.498 496.857,333.832 487.5,333.5C 488.564,329.901 490.731,326.901 494,324.5C 494.831,318.141 494.664,311.807 493.5,305.5C 491.999,304.248 490.332,303.248 488.5,302.5C 487.548,300.955 487.215,299.288 487.5,297.5C 492.456,296.018 497.123,294.018 501.5,291.5 Z"/></g>
<g><path style="opacity:0.959" fill="#e73c94" d="M 541.5,291.5 C 543.169,294.049 544.835,296.716 546.5,299.5C 552.93,292.016 560.596,290.516 569.5,295C 579.462,307.573 578.462,319.24 566.5,330C 560.674,334.181 554.341,335.348 547.5,333.5C 546.509,337.445 546.176,341.445 546.5,345.5C 550.441,345.9 554.107,347.067 557.5,349C 556.833,350 556.167,351 555.5,352C 546.506,352.5 537.506,352.666 528.5,352.5C 528.502,348.651 530.335,345.985 534,344.5C 534.667,331.5 534.667,318.5 534,305.5C 532.581,304.54 531.081,303.707 529.5,303C 528.24,301.186 528.24,299.353 529.5,297.5C 533.592,295.454 537.592,293.454 541.5,291.5 Z M 553.5,301.5 C 558.474,301.299 561.64,303.632 563,308.5C 563.667,312.833 563.667,317.167 563,321.5C 557.883,327.969 552.549,327.969 547,321.5C 546.333,316.167 546.333,310.833 547,305.5C 549.013,303.752 551.18,302.418 553.5,301.5 Z"/></g>
<g><path style="opacity:0.966" fill="#e83c95" d="M 603.5,292.5 C 617.897,291.192 625.897,297.692 627.5,312C 623.029,330.49 611.695,337.156 593.5,332C 581.466,320.057 581.799,308.39 594.5,297C 597.592,295.454 600.592,293.954 603.5,292.5 Z M 601.5,300.5 C 608.313,299.812 612.48,302.812 614,309.5C 614.667,313.5 614.667,317.5 614,321.5C 610.833,326.998 606.666,327.832 601.5,324C 596.23,316.034 596.23,308.201 601.5,300.5 Z"/></g>
<g><path style="opacity:0.957" fill="#e83c95" d="M 647.5,291.5 C 648.376,291.369 649.043,291.702 649.5,292.5C 650.432,294.795 651.265,297.129 652,299.5C 654.167,297.333 656.333,295.167 658.5,293C 663.03,291.773 667.03,292.606 670.5,295.5C 671.485,297.098 671.651,298.765 671,300.5C 669.287,301.878 667.953,303.545 667,305.5C 665.301,306.406 663.467,306.739 661.5,306.5C 661.915,304.052 660.915,302.719 658.5,302.5C 656.303,302.848 654.47,303.848 653,305.5C 652.5,312.492 652.334,319.492 652.5,326.5C 655.899,327.016 659.232,327.85 662.5,329C 663.711,330.113 663.711,331.28 662.5,332.5C 653.19,333.498 643.857,333.832 634.5,333.5C 634.343,332.127 634.51,330.793 635,329.5C 640.931,326.497 643.098,321.664 641.5,315C 641.167,311.833 640.833,308.667 640.5,305.5C 637.789,304.333 635.789,302.499 634.5,300C 634.833,299.167 635.167,298.333 635.5,297.5C 639.84,295.997 643.84,293.997 647.5,291.5 Z"/></g>
<g><path style="opacity:0.968" fill="#e83c95" d="M 687.5,292.5 C 692.93,292.161 698.264,292.661 703.5,294C 706.756,295.587 708.923,298.087 710,301.5C 710.333,309.833 710.667,318.167 711,326.5C 713.365,327.289 715.532,328.456 717.5,330C 716.833,331 716.167,332 715.5,333C 710.177,333.499 704.844,333.666 699.5,333.5C 699.66,331.801 699.494,330.134 699,328.5C 693.605,334.549 687.105,336.049 679.5,333C 673.884,327.914 673.051,322.081 677,315.5C 678.41,314.213 679.91,313.046 681.5,312C 687.491,311.501 693.491,311.334 699.5,311.5C 699.864,305.364 697.031,301.698 691,300.5C 686.636,301.351 682.636,303.017 679,305.5C 674.548,303.74 674.381,301.574 678.5,299C 681.402,296.583 684.402,294.416 687.5,292.5 Z M 687.5,316.5 C 691.5,316.5 695.5,316.5 699.5,316.5C 699.813,322.034 697.146,325.034 691.5,325.5C 689.626,325.61 688.126,324.944 687,323.5C 686.297,321.071 686.463,318.738 687.5,316.5 Z"/></g>
<g><path style="opacity:0.982" fill="#e83c95" d="M 769.5,291.5 C 771.167,291.5 772.833,291.5 774.5,291.5C 774.333,303.171 774.5,314.838 775,326.5C 777.007,327.669 779.173,328.335 781.5,328.5C 781.579,329.93 781.246,331.264 780.5,332.5C 772.528,333.498 764.528,333.831 756.5,333.5C 756.343,332.127 756.51,330.793 757,329.5C 762.931,326.497 765.098,321.664 763.5,315C 763.333,311.833 763.167,308.667 763,305.5C 759.017,303.701 756.851,300.701 756.5,296.5C 761.132,295.404 765.466,293.737 769.5,291.5 Z"/></g>
<g><path style="opacity:0.953" fill="#e83c96" d="M 805.5,292.5 C 824.928,292.104 832.428,301.437 828,320.5C 821.941,331.205 812.774,335.705 800.5,334C 792.209,330.429 787.876,324.096 787.5,315C 789.257,304.079 795.257,296.579 805.5,292.5 Z M 804.5,300.5 C 809.991,300.16 813.824,302.494 816,307.5C 818.229,313.331 817.895,318.998 815,324.5C 808.254,327.801 803.587,325.801 801,318.5C 799.207,313.81 799.207,309.144 801,304.5C 801.69,302.65 802.856,301.316 804.5,300.5 Z"/></g>
<g><path style="opacity:0.976" fill="#e83c95" d="M 850.5,291.5 C 852.456,293.904 854.123,296.57 855.5,299.5C 859.198,295.761 863.531,293.427 868.5,292.5C 874.039,292.18 877.872,294.514 880,299.5C 880.333,308.5 880.667,317.5 881,326.5C 883.589,327.208 885.755,328.541 887.5,330.5C 887.167,331.167 886.833,331.833 886.5,332.5C 880.872,333.495 875.206,333.829 869.5,333.5C 869.666,324.161 869.5,314.827 869,305.5C 868.242,303.09 866.575,302.09 864,302.5C 861.019,302.657 858.352,303.657 856,305.5C 855.333,312.5 855.333,319.5 856,326.5C 858.185,327.67 860.351,328.836 862.5,330C 861.874,330.75 861.374,331.584 861,332.5C 853.253,333.482 845.42,333.815 837.5,333.5C 837.502,329.651 839.335,326.985 843,325.5C 843.667,318.833 843.667,312.167 843,305.5C 841.581,304.54 840.081,303.707 838.5,303C 837.24,301.186 837.24,299.353 838.5,297.5C 842.692,295.672 846.692,293.672 850.5,291.5 Z"/></g>
<g><path style="opacity:0.939" fill="#e73d95" d="M 223.5,303.5 C 225.471,304.823 227.471,306.156 229.5,307.5C 230.663,312.802 230.829,318.136 230,323.5C 228.488,324.257 227.154,325.257 226,326.5C 225.083,322.836 223.25,319.67 220.5,317C 219.167,316.333 217.833,316.333 216.5,317C 202.231,325.415 196.898,321.415 200.5,305C 205.321,304.808 208.987,306.808 211.5,311C 219.654,314.766 223.654,312.266 223.5,303.5 Z"/></g>
<g><path style="opacity:0.785" fill="#e93b94" d="M 805.5,304.5 C 806.833,304.5 808.167,304.5 809.5,304.5C 809.82,307.898 809.487,311.232 808.5,314.5C 805.269,311.684 804.269,308.35 805.5,304.5 Z"/></g>
<g><path style="opacity:0.94" fill="#e83c94" d="M 524.5,305.5 C 526.484,305.383 528.15,306.05 529.5,307.5C 530.666,319.152 530.833,330.819 530,342.5C 527.333,343.833 525.333,345.833 524,348.5C 522.399,343.864 520.899,339.198 519.5,334.5C 521.459,331.811 521.625,329.144 520,326.5C 517.788,325.88 515.954,324.713 514.5,323C 512.591,319.521 511.258,315.854 510.5,312C 510.492,308.788 511.492,308.121 513.5,310C 518.562,311.607 522.228,310.107 524.5,305.5 Z"/></g>
<g><path style="opacity:0.931" fill="#e83c95" d="M 602.5,304.5 C 606.601,304.43 609.101,306.43 610,310.5C 610.667,313.833 610.667,317.167 610,320.5C 605.857,323.133 603.191,321.8 602,316.5C 601.306,312.446 601.473,308.446 602.5,304.5 Z"/></g>
<g><path style="opacity:0.964" fill="#e93d95" d="M 251.5,306.5 C 252.833,306.5 254.167,306.5 255.5,306.5C 255.83,312.868 255.496,319.202 254.5,325.5C 253.264,324.754 251.93,324.421 250.5,324.5C 250.211,318.409 250.545,312.409 251.5,306.5 Z"/></g>
<g><path style="opacity:0.848" fill="#e73c96" d="M 276.5,306.5 C 277.5,306.5 278.5,306.5 279.5,306.5C 279.83,312.868 279.496,319.202 278.5,325.5C 277.264,324.754 275.93,324.421 274.5,324.5C 273.947,318.208 274.614,312.208 276.5,306.5 Z"/></g>
<g><path style="opacity:0.921" fill="#e83c94" d="M 554.5,305.5 C 557.388,305.22 558.888,306.553 559,309.5C 559.667,313.167 559.667,316.833 559,320.5C 556.525,322.752 553.859,322.752 551,320.5C 550.333,316.167 550.333,311.833 551,307.5C 552.302,306.915 553.469,306.249 554.5,305.5 Z"/></g>
<g><path style="opacity:0.997" fill="#e83c95" d="M 779.5,299.5 C 784.487,303.611 785.82,308.778 783.5,315C 784.253,326.932 790.253,335.099 801.5,339.5C 803.368,344.437 805.035,349.437 806.5,354.5C 789.275,455.534 736.609,531.7 648.5,583C 564.005,626.687 477.005,632.354 387.5,600C 371.33,593.915 355.997,586.248 341.5,577C 417.421,576.975 473.921,544.142 511,478.5C 530.232,439.666 535.066,399.166 525.5,357C 530.948,357.09 536.448,357.257 542,357.5C 547.275,357.616 552.442,357.116 557.5,356C 563.659,347.486 561.326,342.986 550.5,342.5C 550.5,341.167 550.5,339.833 550.5,338.5C 565.32,337.846 575.153,330.513 580,316.5C 586.322,338.385 599.488,343.885 619.5,333C 629.351,325.472 633.184,315.639 631,303.5C 632.815,305.405 634.815,307.072 637,308.5C 639.309,316.659 637.309,323.325 631,328.5C 630.022,331.669 630.522,334.503 632.5,337C 637.558,338.116 642.725,338.616 648,338.5C 653.037,338.462 658.037,338.129 663,337.5C 666.559,335.05 667.892,331.716 667,327.5C 664.005,324.89 660.505,323.557 656.5,323.5C 656.172,318.125 656.505,312.792 657.5,307.5C 660.278,310.307 663.611,311.14 667.5,310C 669.017,308.315 670.684,306.815 672.5,305.5C 673.833,307.167 675.167,308.833 676.5,310.5C 668.527,319.036 668.527,327.536 676.5,336C 682.785,339.043 689.118,339.209 695.5,336.5C 696.5,337 697.5,337.5 698.5,338C 704.167,338.667 709.833,338.667 715.5,338C 723.425,332.606 723.258,327.772 715,323.5C 714.169,316.476 714.336,309.476 715.5,302.5C 717.51,304.171 719.843,304.838 722.5,304.5C 722.334,311.508 722.5,318.508 723,325.5C 726.819,336.83 734.653,340.997 746.5,338C 748.167,336.833 749.833,335.667 751.5,334.5C 753.028,335.861 754.695,337.028 756.5,338C 764.5,338.667 772.5,338.667 780.5,338C 784.34,335.489 785.84,331.989 785,327.5C 783.758,326.128 782.258,325.128 780.5,324.5C 779.502,316.193 779.169,307.86 779.5,299.5 Z M 687.5,316.5 C 686.463,318.738 686.297,321.071 687,323.5C 688.126,324.944 689.626,325.61 691.5,325.5C 697.146,325.034 699.813,322.034 699.5,316.5C 695.5,316.5 691.5,316.5 687.5,316.5 Z"/></g>
<g><path style="opacity:0.639" fill="#e73c94" d="M 686.5,305.5 C 689.247,305.187 691.914,305.52 694.5,306.5C 691.554,307.655 688.554,307.821 685.5,307C 686.056,306.617 686.389,306.117 686.5,305.5 Z"/></g>
<g><path style="opacity:0.978" fill="#e83c95" d="M 752.5,303.5 C 754.861,304.435 757.028,305.768 759,307.5C 759.829,312.864 759.663,318.198 758.5,323.5C 757.833,323.833 757.167,324.167 756.5,324.5C 755.108,322.108 753.108,320.441 750.5,319.5C 748.056,320.222 745.722,321.222 743.5,322.5C 742.504,316.537 742.171,310.537 742.5,304.5C 746.042,304.813 749.375,304.479 752.5,303.5 Z"/></g>
<g><path style="opacity:0.935" fill="#e73b94" d="M 454.5,314.5 C 454.735,313.903 455.235,313.57 456,313.5C 458.135,314.127 460.302,314.627 462.5,315C 463.591,317.064 463.758,319.231 463,321.5C 461.132,322.672 459.298,322.505 457.5,321C 456.269,318.834 455.269,316.667 454.5,314.5 Z"/></g>
<g><path style="opacity:0.914" fill="#e83c97" d="M 325.5,318.5 C 329.182,318.335 332.848,318.501 336.5,319C 333.541,321.33 330.207,321.996 326.5,321C 325.748,320.329 325.414,319.496 325.5,318.5 Z"/></g>
</svg>
