<?xml version="1.0" encoding="UTF-8"?>
<!DOCTYPE svg PUBLIC "-//W3C//DTD SVG 1.1//EN" "http://www.w3.org/Graphics/SVG/1.1/DTD/svg11.dtd">
<svg xmlns="http://www.w3.org/2000/svg" version="1.1" width="1000px" height="239px" style="shape-rendering:geometricPrecision; text-rendering:geometricPrecision; image-rendering:optimizeQuality; fill-rule:evenodd; clip-rule:evenodd" xmlns:xlink="http://www.w3.org/1999/xlink">
<g><path style="opacity:0.942" fill="#76d3fb" d="M 491.5,-0.5 C 491.833,-0.5 492.167,-0.5 492.5,-0.5C 492.5,12.8333 492.5,26.1667 492.5,39.5C 480.162,39.6665 467.829,39.4999 455.5,39C 458.321,30.1828 463.655,23.3495 471.5,18.5C 472.493,23.1196 472.827,27.7863 472.5,32.5C 476.833,32.5 481.167,32.5 485.5,32.5C 485.5,24.8333 485.5,17.1667 485.5,9.5C 474.072,12.0781 465.238,18.4114 459,28.5C 456.597,32.6347 454.763,36.9681 453.5,41.5C 467.833,41.5 482.167,41.5 496.5,41.5C 496.5,27.5 496.5,13.5 496.5,-0.5C 498.833,-0.5 501.167,-0.5 503.5,-0.5C 503.5,13.5 503.5,27.5 503.5,41.5C 517.849,41.8326 532.182,41.4993 546.5,40.5C 541.351,25.0159 531.018,15.0159 515.5,10.5C 515.5,17.8333 515.5,25.1667 515.5,32.5C 519.5,32.5 523.5,32.5 527.5,32.5C 527.173,27.7863 527.507,23.1196 528.5,18.5C 536.196,23.5545 541.196,30.5545 543.5,39.5C 531.5,39.5 519.5,39.5 507.5,39.5C 507.5,26.1667 507.5,12.8333 507.5,-0.5C 508.167,-0.5 508.833,-0.5 509.5,-0.5C 535.732,5.40374 551.065,21.7371 555.5,48.5C 538.167,48.5 520.833,48.5 503.5,48.5C 503.5,49.5 503.5,50.5 503.5,51.5C 521.167,51.5 538.833,51.5 556.5,51.5C 556.5,54.1667 556.5,56.8333 556.5,59.5C 538.833,59.5 521.167,59.5 503.5,59.5C 503.5,60.8333 503.5,62.1667 503.5,63.5C 520.833,63.5 538.167,63.5 555.5,63.5C 551.042,90.6237 535.376,106.957 508.5,112.5C 507.501,99.1833 507.167,85.85 507.5,72.5C 519.5,72.5 531.5,72.5 543.5,72.5C 541.209,81.4544 536.209,88.4544 528.5,93.5C 527.507,88.8804 527.173,84.2137 527.5,79.5C 523.5,79.5 519.5,79.5 515.5,79.5C 515.5,86.8333 515.5,94.1667 515.5,101.5C 531.03,96.9713 541.363,86.9713 546.5,71.5C 532.182,70.5007 517.849,70.1674 503.5,70.5C 503.5,84.5 503.5,98.5 503.5,112.5C 501.167,112.5 498.833,112.5 496.5,112.5C 496.5,98.5 496.5,84.5 496.5,70.5C 482.151,70.1674 467.818,70.5007 453.5,71.5C 458.981,87.3159 469.647,97.6492 485.5,102.5C 485.5,94.8333 485.5,87.1667 485.5,79.5C 481.167,79.5 476.833,79.5 472.5,79.5C 472.827,84.2137 472.493,88.8804 471.5,93.5C 466.856,90.6896 463.023,87.0229 460,82.5C 457.965,79.4388 456.799,76.1055 456.5,72.5C 468.5,72.5 480.5,72.5 492.5,72.5C 492.5,85.5 492.5,98.5 492.5,111.5C 464.96,106.96 448.627,90.9601 443.5,63.5C 461.167,63.5 478.833,63.5 496.5,63.5C 496.5,62.1667 496.5,60.8333 496.5,59.5C 478.5,59.5 460.5,59.5 442.5,59.5C 442.5,56.8333 442.5,54.1667 442.5,51.5C 460.5,51.5 478.5,51.5 496.5,51.5C 496.5,50.5 496.5,49.5 496.5,48.5C 478.833,48.5 461.167,48.5 443.5,48.5C 448.724,21.6092 464.724,5.27588 491.5,-0.5 Z"/></g>
<g><path style="opacity:0.946" fill="#76d3fb" d="M 193.5,101.5 C 270.167,101.5 346.833,101.5 423.5,101.5C 423.5,104.167 423.5,106.833 423.5,109.5C 346.833,109.5 270.167,109.5 193.5,109.5C 193.5,106.833 193.5,104.167 193.5,101.5 Z"/></g>
<g><path style="opacity:0.946" fill="#76d3fb" d="M 575.5,101.5 C 652.167,101.5 728.833,101.5 805.5,101.5C 805.5,104.167 805.5,106.833 805.5,109.5C 728.833,109.5 652.167,109.5 575.5,109.5C 575.5,106.833 575.5,104.167 575.5,101.5 Z"/></g>
<g><path style="opacity:0.998" fill="#76d3fb" d="M 5.5,130.5 C 334.834,130.333 664.167,130.5 993.5,131C 998.884,133.938 998.55,136.271 992.5,138C 663.5,138.667 334.5,138.667 5.5,138C 0.315723,135.527 0.315723,133.027 5.5,130.5 Z"/></g>
<g><path style="opacity:0.975" fill="#76d3fb" d="M 951.5,156.5 C 963.229,156.839 974.896,157.839 986.5,159.5C 986.295,167.867 986.629,176.2 987.5,184.5C 970.818,184.313 954.151,184.647 937.5,185.5C 936.752,187.584 936.752,189.584 937.5,191.5C 949.102,193.394 960.769,194.894 972.5,196C 989.281,198.428 996.447,207.928 994,224.5C 989.884,230.644 984.051,233.811 976.5,234C 957.831,235.743 939.165,235.909 920.5,234.5C 920.795,227.774 920.462,221.108 919.5,214.5C 935.8,214.681 952.133,214.347 968.5,213.5C 969.106,211.36 968.773,209.193 967.5,207C 953.408,206.446 939.408,205.113 925.5,203C 923.044,200.592 921.211,197.759 920,194.5C 918.504,187.901 918.171,181.234 919,174.5C 920.675,168.159 924.508,163.659 930.5,161C 937.46,158.643 944.46,157.143 951.5,156.5 Z"/></g>
<g><path style="opacity:0.981" fill="#76d3fc" d="M 170.5,158.5 C 184.996,157.819 199.33,158.986 213.5,162C 216.196,162.765 218.696,163.932 221,165.5C 225.406,186.138 225.406,206.805 221,227.5C 217.027,233.071 211.527,235.904 204.5,236C 186.767,236.927 169.1,236.261 151.5,234C 150.069,233.535 148.903,232.701 148,231.5C 139.155,210.592 138.155,189.259 145,167.5C 145.685,164.943 147.185,163.109 149.5,162C 156.572,160.443 163.572,159.276 170.5,158.5 Z M 172.5,186.5 C 180.84,186.334 189.173,186.5 197.5,187C 204.13,188.103 206.796,192.103 205.5,199C 205.427,203.602 204.761,208.102 203.5,212.5C 201.78,213.934 199.78,214.767 197.5,215C 186.41,217.184 175.41,216.85 164.5,214C 163.874,213.25 163.374,212.416 163,211.5C 162.152,204.101 162.485,196.767 164,189.5C 166.87,188.307 169.704,187.307 172.5,186.5 Z"/></g>
<g><path style="opacity:0.976" fill="#76d3fc" d="M 231.5,158.5 C 244.146,159.232 256.813,159.732 269.5,160C 281.21,160.617 292.543,162.951 303.5,167C 307.092,170.016 309.258,173.849 310,178.5C 313.794,190.407 309.961,198.573 298.5,203C 301.149,203.452 303.649,204.286 306,205.5C 311.923,219.818 307.757,229.985 293.5,236C 276.188,237.419 258.855,237.585 241.5,236.5C 241.882,216.469 241.382,196.469 240,176.5C 237.619,175.565 235.119,175.232 232.5,175.5C 231.968,169.848 231.635,164.181 231.5,158.5 Z M 263.5,175.5 C 269.176,175.334 274.843,175.501 280.5,176C 283.924,181.482 284.257,187.149 281.5,193C 273.92,194.601 266.253,195.435 258.5,195.5C 257.423,189.218 256.757,182.884 256.5,176.5C 259.059,176.802 261.393,176.468 263.5,175.5 Z M 266.5,208.5 C 271.233,208.223 275.9,208.557 280.5,209.5C 282.681,212.263 283.015,215.263 281.5,218.5C 274.051,220.736 266.384,221.736 258.5,221.5C 258.495,217.466 258.162,213.466 257.5,209.5C 260.713,209.81 263.713,209.477 266.5,208.5 Z"/></g>
<g><path style="opacity:0.983" fill="#76d4fb" d="M 568.5,158.5 C 584.086,157.569 599.419,159.069 614.5,163C 616.286,163.785 617.786,164.951 619,166.5C 620.073,170.084 620.74,173.75 621,177.5C 621.667,188.5 621.667,199.5 621,210.5C 620.722,216.957 619.722,223.29 618,229.5C 613.673,233.547 608.507,235.714 602.5,236C 584.765,236.959 567.098,236.292 549.5,234C 547.714,233.215 546.214,232.049 545,230.5C 537.531,210.859 536.531,190.859 542,170.5C 542.848,167.302 544.348,164.469 546.5,162C 553.925,160.501 561.259,159.335 568.5,158.5 Z M 569.5,186.5 C 578.173,186.334 586.84,186.5 595.5,187C 601.825,187.785 604.492,191.452 603.5,198C 603.087,202.888 602.42,207.721 601.5,212.5C 588.337,217.39 575.004,217.723 561.5,213.5C 560.37,206.55 560.203,199.55 561,192.5C 561.309,191.234 561.809,190.067 562.5,189C 564.927,188.098 567.26,187.264 569.5,186.5 Z"/></g>
<g><path style="opacity:0.978" fill="#76d3fb" d="M 102.5,159.5 C 105.167,159.5 107.833,159.5 110.5,159.5C 107.579,177.71 105.912,196.044 105.5,214.5C 114.167,214.5 122.833,214.5 131.5,214.5C 131.964,220.871 132.631,227.204 133.5,233.5C 117.538,235.307 101.538,236.64 85.5,237.5C 84.4716,211.864 83.8049,186.197 83.5,160.5C 90.0221,160.823 96.3554,160.49 102.5,159.5 Z"/></g>
<g><path style="opacity:0.98" fill="#76d3fb" d="M 384.5,159.5 C 404.509,159.985 424.509,160.652 444.5,161.5C 445.276,169.475 445.61,177.475 445.5,185.5C 439.19,186.19 432.857,186.524 426.5,186.5C 425.632,203.48 424.965,220.48 424.5,237.5C 417.5,237.5 410.5,237.5 403.5,237.5C 404.716,221.513 404.716,205.513 403.5,189.5C 397.167,189.5 390.833,189.5 384.5,189.5C 384.5,179.5 384.5,169.5 384.5,159.5 Z"/></g>
<g><path style="opacity:0.98" fill="#76d3fb" d="M 631.5,159.5 C 651.508,160 671.508,160.667 691.5,161.5C 691.833,169.5 692.167,177.5 692.5,185.5C 685.857,186.212 679.191,186.546 672.5,186.5C 672.612,202.852 672.112,219.185 671,235.5C 664.452,237.438 657.618,238.105 650.5,237.5C 651.716,221.503 651.716,205.503 650.5,189.5C 644.167,189.5 637.833,189.5 631.5,189.5C 631.5,179.5 631.5,169.5 631.5,159.5 Z"/></g>
<g><path style="opacity:0.978" fill="#76d3fb" d="M 699.5,159.5 C 719.509,159.985 739.509,160.652 759.5,161.5C 760.224,169.479 760.558,177.479 760.5,185.5C 753.925,185.889 747.425,186.556 741,187.5C 740.49,204.169 739.99,220.835 739.5,237.5C 732.5,237.5 725.5,237.5 718.5,237.5C 719.731,221.504 719.731,205.504 718.5,189.5C 712.167,189.5 705.833,189.5 699.5,189.5C 699.5,179.5 699.5,169.5 699.5,159.5 Z"/></g>
<g><path style="opacity:0.975" fill="#76d3fc" d="M 71.5,238.5 C 67.8333,238.5 64.1667,238.5 60.5,238.5C 45.6109,237.887 30.6109,236.72 15.5,235C 9.03066,232.914 5.864,228.414 6,221.5C 5.07437,211.669 4.24103,201.836 3.5,192C 2.51002,178.308 8.51002,169.308 21.5,165C 36.7178,160.978 52.0511,160.478 67.5,163.5C 67.6944,171.249 67.6944,178.916 67.5,186.5C 54.2148,182.73 40.8815,182.563 27.5,186C 25.6667,186.5 24.5,187.667 24,189.5C 21.8203,200.32 22.4869,210.987 26,221.5C 31.4066,222.473 36.9066,222.807 42.5,222.5C 42.8097,216.242 42.4764,210.076 41.5,204C 51.1609,203.5 60.8276,203.334 70.5,203.5C 71.3017,215.148 71.6351,226.815 71.5,238.5 Z"/></g>
<g><path style="opacity:0.983" fill="#76d3fb" d="M 321.5,161.5 C 340.5,161.5 359.5,161.5 378.5,161.5C 378.503,166.527 378.836,171.527 379.5,176.5C 366.47,176.645 353.47,177.312 340.5,178.5C 340.5,180.833 340.5,183.167 340.5,185.5C 349.181,184.907 357.848,184.24 366.5,183.5C 366.881,190.178 367.048,196.844 367,203.5C 359.59,205.249 352.09,206.749 344.5,208C 343.643,211.76 343.643,215.594 344.5,219.5C 354.517,218.479 364.517,217.645 374.5,217C 375.6,223.52 376.933,230.02 378.5,236.5C 359.512,237.5 340.512,237.833 321.5,237.5C 322.459,212.16 322.459,186.827 321.5,161.5 Z"/></g>
<g><path style="opacity:0.977" fill="#76d3fc" d="M 527.5,238.5 C 517.5,238.5 507.5,238.5 497.5,238.5C 496.546,228.896 494.379,219.563 491,210.5C 486.985,210.303 482.818,210.303 478.5,210.5C 478.403,218.191 478.737,225.858 479.5,233.5C 471.5,233.5 463.5,233.5 455.5,233.5C 457.065,210.198 458.065,186.864 458.5,163.5C 473.161,162.533 487.827,162.033 502.5,162C 522.83,163.663 530.997,174.497 527,194.5C 523.359,200.244 518.193,203.91 511.5,205.5C 517.646,216.124 522.979,227.124 527.5,238.5 Z M 484.5,174.5 C 501.589,169.757 507.756,175.757 503,192.5C 501.933,193.191 500.766,193.691 499.5,194C 493.509,194.499 487.509,194.666 481.5,194.5C 481.08,188.137 480.413,181.804 479.5,175.5C 481.415,175.784 483.081,175.451 484.5,174.5 Z"/></g>
<g><path style="opacity:0.978" fill="#76d4fb" d="M 769.5,161.5 C 788.5,161.5 807.5,161.5 826.5,161.5C 827.053,166.482 827.387,171.482 827.5,176.5C 814.474,176.724 801.474,177.391 788.5,178.5C 788.5,180.833 788.5,183.167 788.5,185.5C 797.186,184.95 805.853,184.283 814.5,183.5C 815.38,190.149 815.546,196.816 815,203.5C 807.593,205.264 800.093,206.764 792.5,208C 792.041,211.727 792.041,215.561 792.5,219.5C 802.841,218.573 813.174,217.573 823.5,216.5C 824.034,223.572 825.034,230.572 826.5,237.5C 807.5,237.5 788.5,237.5 769.5,237.5C 770.603,212.142 770.603,186.809 769.5,161.5 Z"/></g>
<g><path style="opacity:0.975" fill="#76d3fc" d="M 907.5,238.5 C 897.5,238.5 887.5,238.5 877.5,238.5C 876.545,228.893 874.378,219.56 871,210.5C 866.985,210.303 862.818,210.303 858.5,210.5C 858.889,218.164 859.222,225.83 859.5,233.5C 851.5,233.5 843.5,233.5 835.5,233.5C 837.234,210.211 838.234,186.877 838.5,163.5C 853.163,162.571 867.829,162.071 882.5,162C 902.865,163.693 911.031,174.526 907,194.5C 903.359,200.244 898.193,203.91 891.5,205.5C 897.651,216.135 902.985,227.135 907.5,238.5 Z M 864.5,174.5 C 870.176,174.334 875.843,174.501 881.5,175C 882,175.5 882.5,176 883,176.5C 885.155,182.132 884.989,187.632 882.5,193C 875.916,194.544 869.249,194.877 862.5,194C 861.217,187.91 860.217,181.744 859.5,175.5C 861.415,175.784 863.081,175.451 864.5,174.5 Z"/></g>
</svg>
