<?xml version="1.0" encoding="UTF-8"?>
<!DOCTYPE svg PUBLIC "-//W3C//DTD SVG 1.1//EN" "http://www.w3.org/Graphics/SVG/1.1/DTD/svg11.dtd">
<svg xmlns="http://www.w3.org/2000/svg" version="1.1" width="1000px" height="257px" style="shape-rendering:geometricPrecision; text-rendering:geometricPrecision; image-rendering:optimizeQuality; fill-rule:evenodd; clip-rule:evenodd" xmlns:xlink="http://www.w3.org/1999/xlink">
<g><path style="opacity:0.998" fill="#7a26c1" d="M 867.5,-0.5 C 884.5,-0.5 901.5,-0.5 918.5,-0.5C 940.471,1.76963 960.805,8.9363 979.5,21C 987.397,28.9576 992.564,38.4576 995,49.5C 996.824,58.9195 997.991,68.4195 998.5,78C 996.418,119.899 993.585,161.732 990,203.5C 988.507,217.01 983.007,228.51 973.5,238C 971.725,239.439 969.725,240.439 967.5,241C 932.308,246.316 896.975,250.316 861.5,253C 790.517,255.687 719.517,256.187 648.5,254.5C 618.988,254.444 589.655,255.111 560.5,256.5C 543.833,256.5 527.167,256.5 510.5,256.5C 499.833,255.167 489.167,255.167 478.5,256.5C 452.5,256.5 426.5,256.5 400.5,256.5C 400.038,255.12 399.038,254.453 397.5,254.5C 395.578,254.801 393.912,255.467 392.5,256.5C 388.167,256.5 383.833,256.5 379.5,256.5C 372.491,253.887 365.491,253.887 358.5,256.5C 353.5,256.5 348.5,256.5 343.5,256.5C 334.808,253.807 325.808,252.974 316.5,254C 314.509,254.374 312.842,255.207 311.5,256.5C 310.5,256.5 309.5,256.5 308.5,256.5C 307.103,252.717 304.937,249.384 302,246.5C 299.463,249.046 296.463,250.712 293,251.5C 293.019,253.107 293.185,254.774 293.5,256.5C 291.833,256.5 290.167,256.5 288.5,256.5C 285.866,252.451 283.699,248.118 282,243.5C 280.035,242.115 278.202,242.282 276.5,244C 277.448,244.483 278.448,244.649 279.5,244.5C 280.5,249.5 278.5,251.5 273.5,250.5C 273.396,252.703 272.73,254.703 271.5,256.5C 268.833,256.5 266.167,256.5 263.5,256.5C 260.067,253.111 256.067,252.111 251.5,253.5C 251.799,251.396 251.466,249.396 250.5,247.5C 247.494,249.254 244.327,250.588 241,251.5C 223.641,248.346 206.141,246.513 188.5,246C 160.167,245.667 131.833,245.333 103.5,245C 71.3037,244.661 40.3037,238.494 10.5,226.5C 9.38615,225.277 9.21948,223.944 10,222.5C 11.5,220.333 13,218.167 14.5,216C 13.1095,214.98 11.6095,214.147 10,213.5C 9.35165,207.221 7.68498,201.221 5,195.5C 4.29741,192.287 4.46407,189.121 5.5,186C 3.60895,183.101 3.10895,179.934 4,176.5C 7.60792,172.945 9.27459,168.612 9,163.5C 13.4145,162.697 17.9145,162.197 22.5,162C 24.4108,156.421 28.0774,152.421 33.5,150C 41.7174,147.797 50.0508,146.13 58.5,145C 55.5994,140.032 53.0994,134.865 51,129.5C 49.5847,122.171 50.7514,115.338 54.5,109C 49.9628,107.243 45.2961,105.91 40.5,105C 37.3975,103.719 34.7308,101.886 32.5,99.5C 30.5896,100.548 28.7562,100.548 27,99.5C 25.8365,94.1719 23.8365,89.1719 21,84.5C 13.4232,75.6884 7.08984,66.0217 2,55.5C -0.730157,45.1837 3.10318,38.3504 13.5,35C 20.3157,32.5701 27.3157,30.9034 34.5,30C 120.095,18.3622 206.095,12.0289 292.5,11C 397.501,10.7327 502.501,10.7327 607.5,11C 685.782,6.61094 764.115,3.61094 842.5,2C 851.004,1.34929 859.337,0.515958 867.5,-0.5 Z"/></g>
<g><path style="opacity:1" fill="#fcfafd" d="M 189.5,65.5 C 210.292,63.0386 227.625,69.5386 241.5,85C 244.146,85.4974 246.813,85.6641 249.5,85.5C 249.5,90.1667 249.5,94.8333 249.5,99.5C 243.824,99.6661 238.157,99.4994 232.5,99C 222.325,83.5172 207.992,77.5172 189.5,81C 174.599,86.2347 164.766,96.4014 160,111.5C 154.229,132.841 159.062,151.341 174.5,167C 193.553,179.222 211.72,178.056 229,163.5C 233.281,157.826 236.115,151.493 237.5,144.5C 226.5,144.5 215.5,144.5 204.5,144.5C 204.5,139.833 204.5,135.167 204.5,130.5C 221.411,130.175 238.244,130.508 255,131.5C 255.5,150.497 255.667,169.497 255.5,188.5C 250.5,188.5 245.5,188.5 240.5,188.5C 240.666,180.826 240.5,173.159 240,165.5C 233.045,178.434 222.212,185.934 207.5,188C 174.866,191.605 153.7,177.772 144,146.5C 137.549,119.867 144.049,97.0336 163.5,78C 171.338,71.9128 180.005,67.7461 189.5,65.5 Z"/></g>
<g><path style="opacity:1" fill="#fdfbfe" d="M 322.5,65.5 C 359.107,63.2883 381.607,79.9549 390,115.5C 393.625,141.299 385.792,162.799 366.5,180C 333.672,198.749 306.172,192.915 284,162.5C 272.059,138.076 272.726,114.076 286,90.5C 295.268,77.7939 307.435,69.4606 322.5,65.5 Z"/></g>
<g><path style="opacity:1" fill="#fdfbfe" d="M 449.5,65.5 C 486.403,63.5267 508.903,80.5267 517,116.5C 519.266,135.85 514.933,153.517 504,169.5C 486.258,188.978 464.758,194.811 439.5,187C 419.199,178.017 407.033,162.517 403,140.5C 398.995,114.501 406.828,93.0009 426.5,76C 433.76,71.3659 441.427,67.8659 449.5,65.5 Z"/></g>
<g><path style="opacity:1" fill="#fdfcfe" d="M 591.5,131.5 C 608.167,131.5 624.833,131.5 641.5,131.5C 641.5,150.5 641.5,169.5 641.5,188.5C 636.833,188.5 632.167,188.5 627.5,188.5C 627.666,180.826 627.5,173.159 627,165.5C 620.291,177.524 610.124,185.024 596.5,188C 562.596,192.305 540.763,178.138 531,145.5C 524.533,117.571 532.033,94.4044 553.5,76C 574.03,62.6735 595.03,62.0068 616.5,74C 620.728,77.2742 624.728,80.7742 628.5,84.5C 631.428,85.4841 634.428,85.8174 637.5,85.5C 637.5,90.1667 637.5,94.8333 637.5,99.5C 631.463,99.8293 625.463,99.4959 619.5,98.5C 605.857,80.255 588.524,75.755 567.5,85C 549.008,98.4421 541.841,116.609 546,139.5C 551.884,164.017 567.384,175.85 592.5,175C 610.525,172.474 621.191,162.307 624.5,144.5C 613.5,144.5 602.5,144.5 591.5,144.5C 591.5,140.167 591.5,135.833 591.5,131.5 Z"/></g>
<g><path style="opacity:1" fill="#d3b8ea" d="M 668.5,68.5 C 681.323,67.5045 694.323,67.1712 707.5,67.5C 707.819,72.3633 707.486,77.03 706.5,81.5C 706.5,77.1667 706.5,72.8333 706.5,68.5C 693.833,68.5 681.167,68.5 668.5,68.5 Z"/></g>
<g><path style="opacity:1" fill="#ceb0e8" d="M 841.5,101.5 C 846.5,101.5 851.5,101.5 856.5,101.5C 856.5,90.5 856.5,79.5 856.5,68.5C 828.167,68.5 799.833,68.5 771.5,68.5C 771.5,72.8333 771.5,77.1667 771.5,81.5C 770.514,77.03 770.181,72.3633 770.5,67.5C 799.5,67.5 828.5,67.5 857.5,67.5C 857.5,79.1667 857.5,90.8333 857.5,102.5C 851.974,102.821 846.64,102.488 841.5,101.5 Z"/></g>
<g><path style="opacity:1" fill="#fdfcfe" d="M 668.5,68.5 C 681.167,68.5 693.833,68.5 706.5,68.5C 706.5,72.8333 706.5,77.1667 706.5,81.5C 702.833,81.5 699.167,81.5 695.5,81.5C 695.5,112.5 695.5,143.5 695.5,174.5C 709.837,174.667 724.171,174.5 738.5,174C 740.286,173.215 741.786,172.049 743,170.5C 743.499,164.509 743.666,158.509 743.5,152.5C 748.5,152.5 753.5,152.5 758.5,152.5C 758.5,164.167 758.5,175.833 758.5,187.5C 728.5,187.5 698.5,187.5 668.5,187.5C 668.5,183.167 668.5,178.833 668.5,174.5C 672.167,174.5 675.833,174.5 679.5,174.5C 679.5,143.5 679.5,112.5 679.5,81.5C 675.833,81.5 672.167,81.5 668.5,81.5C 668.5,77.1667 668.5,72.8333 668.5,68.5 Z"/></g>
<g><path style="opacity:1" fill="#fefdfe" d="M 841.5,101.5 C 840.509,95.021 840.176,88.3543 840.5,81.5C 826.5,81.5 812.5,81.5 798.5,81.5C 797.505,94.3226 797.171,107.323 797.5,120.5C 809.5,120.5 821.5,120.5 833.5,120.5C 833.5,124.833 833.5,129.167 833.5,133.5C 821.833,133.5 810.167,133.5 798.5,133.5C 798.5,147.167 798.5,160.833 798.5,174.5C 812.5,174.5 826.5,174.5 840.5,174.5C 840.5,167.833 840.5,161.167 840.5,154.5C 845.833,154.5 851.167,154.5 856.5,154.5C 856.5,165.5 856.5,176.5 856.5,187.5C 828.167,187.5 799.833,187.5 771.5,187.5C 771.5,183.167 771.5,178.833 771.5,174.5C 775.167,174.5 778.833,174.5 782.5,174.5C 782.5,143.5 782.5,112.5 782.5,81.5C 778.833,81.5 775.167,81.5 771.5,81.5C 771.5,77.1667 771.5,72.8333 771.5,68.5C 799.833,68.5 828.167,68.5 856.5,68.5C 856.5,79.5 856.5,90.5 856.5,101.5C 851.5,101.5 846.5,101.5 841.5,101.5 Z"/></g>
<g><path style="opacity:1" fill="#7a27c1" d="M 323.5,80.5 C 351.316,78.4748 368.15,91.1415 374,118.5C 376.933,139.727 370.099,156.894 353.5,170C 331.428,181.084 313.261,176.584 299,156.5C 289.121,137.464 289.121,118.464 299,99.5C 305.152,90.3662 313.319,84.0329 323.5,80.5 Z"/></g>
<g><path style="opacity:1" fill="#7a27c1" d="M 450.5,80.5 C 478.77,78.5952 495.603,91.5952 501,119.5C 503.08,138.598 497.247,154.765 483.5,168C 460.124,181.575 440.624,177.408 425,155.5C 415.778,135.82 416.445,116.487 427,97.5C 433.055,89.2647 440.888,83.598 450.5,80.5 Z"/></g>
<g><path style="opacity:1" fill="#be95e1" d="M 798.5,81.5 C 798.5,94.1667 798.5,106.833 798.5,119.5C 810.5,119.5 822.5,119.5 834.5,119.5C 834.819,124.363 834.486,129.03 833.5,133.5C 833.5,129.167 833.5,124.833 833.5,120.5C 821.5,120.5 809.5,120.5 797.5,120.5C 797.171,107.323 797.505,94.3226 798.5,81.5 Z"/></g>
<g><path style="opacity:1" fill="#d0b3e9" d="M 591.5,131.5 C 608.325,130.503 625.325,130.17 642.5,130.5C 642.83,150.007 642.497,169.341 641.5,188.5C 641.5,169.5 641.5,150.5 641.5,131.5C 624.833,131.5 608.167,131.5 591.5,131.5 Z"/></g>
<g><path style="opacity:1" fill="#caa9e6" d="M 758.5,152.5 C 759.495,164.322 759.828,176.322 759.5,188.5C 728.995,188.831 698.662,188.498 668.5,187.5C 698.5,187.5 728.5,187.5 758.5,187.5C 758.5,175.833 758.5,164.167 758.5,152.5 Z"/></g>
<g><path style="opacity:1" fill="#d2b5e9" d="M 856.5,154.5 C 857.495,165.654 857.828,176.988 857.5,188.5C 828.5,188.5 799.5,188.5 770.5,188.5C 770.181,183.637 770.514,178.97 771.5,174.5C 771.5,178.833 771.5,183.167 771.5,187.5C 799.833,187.5 828.167,187.5 856.5,187.5C 856.5,176.5 856.5,165.5 856.5,154.5 Z"/></g>
</svg>
