<?xml version="1.0" encoding="UTF-8"?>
<!DOCTYPE svg PUBLIC "-//W3C//DTD SVG 1.1//EN" "http://www.w3.org/Graphics/SVG/1.1/DTD/svg11.dtd">
<svg xmlns="http://www.w3.org/2000/svg" version="1.1" width="1000px" height="650px" style="shape-rendering:geometricPrecision; text-rendering:geometricPrecision; image-rendering:optimizeQuality; fill-rule:evenodd; clip-rule:evenodd" xmlns:xlink="http://www.w3.org/1999/xlink">
<g><path style="opacity:0.998" fill="#a437db" d="M 476.5,-0.5 C 491.833,-0.5 507.167,-0.5 522.5,-0.5C 607.754,13.252 664.587,60.9187 693,142.5C 713.658,224.058 693.825,293.891 633.5,352C 576.919,398.92 512.919,412.92 441.5,394C 370.899,370.399 325.066,322.899 304,251.5C 286.287,168.976 308.787,99.8096 371.5,44C 402.387,19.5354 437.387,4.70206 476.5,-0.5 Z"/></g>
<g><path style="opacity:1" fill="#fefdfe" d="M 415.5,154.5 C 413.167,154.5 410.833,154.5 408.5,154.5C 408.5,143.5 408.5,132.5 408.5,121.5C 410.352,114.815 414.686,110.649 421.5,109C 445.089,86.3137 470.089,84.6471 496.5,104C 510.543,118.316 516.21,135.482 513.5,155.5C 511.167,155.5 508.833,155.5 506.5,155.5C 506.5,152.833 506.5,150.167 506.5,147.5C 488.059,147.945 472.725,141.279 460.5,127.5C 452.534,136.982 442.534,143.149 430.5,146C 425.552,147.05 420.552,147.55 415.5,147.5C 415.5,149.833 415.5,152.167 415.5,154.5 Z"/></g>
<g><path style="opacity:1" fill="#dbb1f1" d="M 408.5,121.5 C 408.5,132.5 408.5,143.5 408.5,154.5C 410.833,154.5 413.167,154.5 415.5,154.5C 413.052,155.473 410.385,155.806 407.5,155.5C 407.172,143.988 407.505,132.654 408.5,121.5 Z"/></g>
<g><path style="opacity:1" fill="#fefdfe" d="M 459.5,138.5 C 460.552,138.351 461.552,138.517 462.5,139C 472.47,148.817 484.47,153.983 498.5,154.5C 498.667,165.838 498.5,177.172 498,188.5C 497.239,191.053 496.406,193.553 495.5,196C 488.476,196.831 481.476,196.664 474.5,195.5C 471.37,190.276 466.704,188.276 460.5,189.5C 450.218,188.616 445.385,193.283 446,203.5C 447.105,206.937 449.272,209.437 452.5,211C 457.833,211.667 463.167,211.667 468.5,211C 471.573,210.303 473.573,208.47 474.5,205.5C 479.802,204.337 485.136,204.171 490.5,205C 475.543,220.725 458.543,223.391 439.5,213C 431.744,207.334 426.578,199.834 424,190.5C 423.5,178.505 423.333,166.505 423.5,154.5C 437.772,153.977 449.772,148.643 459.5,138.5 Z"/></g>
<g><path style="opacity:1" fill="#fdfcfe" d="M 402.5,162.5 C 406.833,162.5 411.167,162.5 415.5,162.5C 415.5,170.167 415.5,177.833 415.5,185.5C 411.154,185.666 406.821,185.499 402.5,185C 402,184.5 401.5,184 401,183.5C 400.333,177.167 400.333,170.833 401,164.5C 401.717,163.956 402.217,163.289 402.5,162.5 Z"/></g>
<g><path style="opacity:1" fill="#a943dc" d="M 436.5,162.5 C 439.352,162.352 441.019,163.686 441.5,166.5C 439.167,171.833 436.833,171.833 434.5,166.5C 434.752,164.927 435.418,163.594 436.5,162.5 Z"/></g>
<g><path style="opacity:1" fill="#b054df" d="M 481.5,162.5 C 487.488,162.664 488.821,165.164 485.5,170C 479.403,170.147 478.07,167.647 481.5,162.5 Z"/></g>
<g><path style="opacity:1" fill="#fdfbfe" d="M 506.5,162.5 C 510.846,162.334 515.179,162.501 519.5,163C 520,163.5 520.5,164 521,164.5C 521.667,170.833 521.667,177.167 521,183.5C 520.311,184.357 519.478,185.023 518.5,185.5C 517.504,191.798 517.17,198.132 517.5,204.5C 515.167,204.5 512.833,204.5 510.5,204.5C 510.5,198.167 510.5,191.833 510.5,185.5C 509.167,185.5 507.833,185.5 506.5,185.5C 506.5,177.833 506.5,170.167 506.5,162.5 Z"/></g>
<g><path style="opacity:1" fill="#f9f2fc" d="M 455.5,196.5 C 459.182,196.335 462.848,196.501 466.5,197C 469.167,199.333 469.167,201.667 466.5,204C 462.833,204.667 459.167,204.667 455.5,204C 452.914,201.506 452.914,199.006 455.5,196.5 Z"/></g>
<g><path style="opacity:1" fill="#fdfafe" d="M 546.5,204.5 C 552.5,204.5 558.5,204.5 564.5,204.5C 564.678,207.216 565.178,209.883 566,212.5C 570.524,214.399 575.024,216.399 579.5,218.5C 582.137,216.173 585.137,215.007 588.5,215C 591.667,218.167 594.833,221.333 598,224.5C 598.667,225.5 598.667,226.5 598,227.5C 596.445,229.443 595.278,231.61 594.5,234C 596.287,237.745 597.954,241.578 599.5,245.5C 602.15,247.494 605.15,248.494 608.5,248.5C 608.829,254.206 608.495,259.872 607.5,265.5C 604.71,266.197 602.043,267.197 599.5,268.5C 598.127,272.786 596.46,276.953 594.5,281C 596.267,283.707 597.434,286.54 598,289.5C 594.318,293.349 590.485,297.016 586.5,300.5C 584.222,298.777 581.722,297.444 579,296.5C 574.953,298.46 570.786,300.127 566.5,301.5C 565.188,304.237 564.188,307.071 563.5,310C 557.843,310.499 552.176,310.666 546.5,310.5C 546.296,307.482 545.963,304.482 545.5,301.5C 540.843,300.336 536.343,298.669 532,296.5C 529.278,297.444 526.778,298.777 524.5,300.5C 520.515,297.016 516.682,293.349 513,289.5C 513.427,286.463 514.594,283.63 516.5,281C 514.54,276.953 512.873,272.786 511.5,268.5C 508.957,267.197 506.29,266.197 503.5,265.5C 502.505,259.872 502.171,254.206 502.5,248.5C 505.994,248.386 508.994,247.22 511.5,245C 512.875,241.043 514.542,237.209 516.5,233.5C 514.691,230.581 513.524,227.581 513,224.5C 516.167,221.333 519.333,218.167 522.5,215C 525.863,215.007 528.863,216.173 531.5,218.5C 535.603,216.115 539.936,214.282 544.5,213C 545.482,210.262 546.148,207.428 546.5,204.5 Z"/></g>
<g><path style="opacity:1" fill="#a73fdc" d="M 547.5,219.5 C 571.002,217.82 586.169,228.153 593,250.5C 593.05,282.453 577.217,296.953 545.5,294C 523.802,285.443 514.968,269.61 519,246.5C 524.176,232.822 533.676,223.822 547.5,219.5 Z"/></g>
<g><path style="opacity:1" fill="#fcf8fd" d="M 468.5,226.5 C 469.5,226.5 470.5,226.5 471.5,226.5C 471.5,228.833 471.5,231.167 471.5,233.5C 466.151,244.135 459.317,245.135 451,236.5C 449.595,232.928 449.262,229.261 450,225.5C 456.076,226.476 462.242,226.81 468.5,226.5 Z"/></g>
<g><path style="opacity:1" fill="#ddb4f1" d="M 468.5,226.5 C 469.568,225.566 470.901,225.232 472.5,225.5C 472.806,228.385 472.473,231.052 471.5,233.5C 471.5,231.167 471.5,228.833 471.5,226.5C 470.5,226.5 469.5,226.5 468.5,226.5 Z"/></g>
<g><path style="opacity:1" fill="#fdfbfe" d="M 547.5,227.5 C 566.268,225.125 578.768,232.791 585,250.5C 586.167,276 574,288.167 548.5,287C 530.899,280.64 523.399,268.14 526,249.5C 530.019,238.982 537.186,231.648 547.5,227.5 Z"/></g>
<g><path style="opacity:1" fill="#fdfbfe" d="M 437.5,231.5 C 439.167,231.5 440.833,231.5 442.5,231.5C 443.004,240.677 447.67,246.677 456.5,249.5C 457.497,257.138 457.831,264.804 457.5,272.5C 443.833,272.5 430.167,272.5 416.5,272.5C 417.326,268.864 417.992,265.197 418.5,261.5C 416.051,260.943 413.718,260.943 411.5,261.5C 410.5,264.833 409.5,268.167 408.5,271.5C 402.5,272.833 396.5,272.833 390.5,271.5C 394.098,262.539 397.598,253.539 401,244.5C 403.592,241.238 406.759,238.738 410.5,237C 419.626,235.15 428.626,233.317 437.5,231.5 Z"/></g>
<g><path style="opacity:1" fill="#fefdfe" d="M 479.5,231.5 C 488.408,233.373 497.408,234.707 506.5,235.5C 506.617,237.484 505.95,239.15 504.5,240.5C 501.243,241.551 497.91,242.218 494.5,242.5C 494.181,252.416 494.514,262.25 495.5,272C 485.172,272.5 474.839,272.666 464.5,272.5C 464.334,264.826 464.5,257.159 465,249.5C 473.871,246.761 478.704,240.761 479.5,231.5 Z"/></g>
<g><path style="opacity:1" fill="#a73fdc" d="M 550.5,234.5 C 566.921,233.693 576.254,241.36 578.5,257.5C 575.833,257.5 573.167,257.5 570.5,257.5C 569.788,247.956 564.622,242.956 555,242.5C 543.847,243.993 539.18,250.327 541,261.5C 543.299,268.41 548.133,272.076 555.5,272.5C 555.5,274.833 555.5,277.167 555.5,279.5C 537.685,277.179 530.518,267.179 534,249.5C 537.19,241.843 542.69,236.843 550.5,234.5 Z"/></g>
<g><path style="opacity:0.991" fill="#a436db" d="M 847.5,649.5 C 838.833,649.5 830.167,649.5 821.5,649.5C 796.855,643.186 781.521,627.519 775.5,602.5C 770.372,578.543 770.205,554.543 775,530.5C 788.543,488.475 816.71,473.308 859.5,485C 867.874,488.517 875.207,493.517 881.5,500C 874.833,508 868.167,516 861.5,524C 860.092,524.315 858.759,523.982 857.5,523C 841.03,509.271 829.197,512.438 822,532.5C 818.458,552.581 818.125,572.581 821,592.5C 821.733,600.8 825.233,607.633 831.5,613C 839.632,616.395 847.299,615.395 854.5,610C 857.333,607.833 860.167,605.667 863,603.5C 869.894,611.39 876.394,619.556 882.5,628C 873.012,638.743 861.345,645.909 847.5,649.5 Z"/></g>
<g><path style="opacity:0.99" fill="#a336db" d="M 76.5,649.5 C 67.5,649.5 58.5,649.5 49.5,649.5C 28.6192,646.461 14.1192,635.128 6,615.5C 3.17319,606.86 1.00652,598.193 -0.5,589.5C -0.5,574.167 -0.5,558.833 -0.5,543.5C 9.61639,493.925 39.6164,474.092 89.5,484C 100.425,487.604 109.758,493.604 117.5,502C 110.698,509.803 103.531,517.303 96,524.5C 88.8883,518.112 80.5549,514.445 71,513.5C 61.5343,513.564 54.8676,517.897 51,526.5C 47.0924,540.044 45.5924,553.877 46.5,568C 45.8959,581.347 47.0626,594.514 50,607.5C 53.5294,615.846 59.6961,618.679 68.5,616C 70.0806,615.293 71.5806,614.46 73,613.5C 73.4998,603.506 73.6665,593.506 73.5,583.5C 69.8333,583.5 66.1667,583.5 62.5,583.5C 60.8869,572.874 59.5535,562.207 58.5,551.5C 77.8333,551.5 97.1667,551.5 116.5,551.5C 116.667,578.502 116.5,605.502 116,632.5C 103.993,640.998 90.8266,646.664 76.5,649.5 Z"/></g>
<g><path style="opacity:0.986" fill="#a436da" d="M 128.5,485.5 C 151.532,485.088 174.532,485.588 197.5,487C 229.914,493.614 243.748,513.447 239,546.5C 237.224,560.733 230.391,571.733 218.5,579.5C 228.333,600.5 238.167,621.5 248,642.5C 248.5,590.168 248.667,537.834 248.5,485.5C 279.167,485.5 309.833,485.5 340.5,485.5C 339.073,496.154 337.74,506.82 336.5,517.5C 322.833,517.5 309.167,517.5 295.5,517.5C 295.5,527.833 295.5,538.167 295.5,548.5C 307.5,548.5 319.5,548.5 331.5,548.5C 331.5,559.167 331.5,569.833 331.5,580.5C 319.5,580.5 307.5,580.5 295.5,580.5C 295.5,591.167 295.5,601.833 295.5,612.5C 309.833,612.5 324.167,612.5 338.5,612.5C 338.5,623.5 338.5,634.5 338.5,645.5C 292.499,645.667 246.499,645.5 200.5,645C 192.74,626.317 185.407,607.484 178.5,588.5C 177.167,588.5 175.833,588.5 174.5,588.5C 174.5,607.5 174.5,626.5 174.5,645.5C 159.167,645.5 143.833,645.5 128.5,645.5C 128.5,592.167 128.5,538.833 128.5,485.5 Z M 174.5,517.5 C 187.684,516.816 194.017,523.149 193.5,536.5C 193.019,541.665 191.853,546.665 190,551.5C 185.818,555.925 180.652,557.592 174.5,556.5C 174.5,543.5 174.5,530.5 174.5,517.5 Z"/></g>
<g><path style="opacity:0.985" fill="#a336da" d="M 347.5,485.5 C 378.168,485.333 408.835,485.5 439.5,486C 437.605,496.429 435.938,506.929 434.5,517.5C 420.833,517.5 407.167,517.5 393.5,517.5C 393.5,527.833 393.5,538.167 393.5,548.5C 405.5,548.5 417.5,548.5 429.5,548.5C 429.5,559.167 429.5,569.833 429.5,580.5C 417.5,580.5 405.5,580.5 393.5,580.5C 393.5,591.167 393.5,601.833 393.5,612.5C 408.167,612.5 422.833,612.5 437.5,612.5C 437.5,623.5 437.5,634.5 437.5,645.5C 407.5,645.5 377.5,645.5 347.5,645.5C 347.5,592.167 347.5,538.833 347.5,485.5 Z"/></g>
<g><path style="opacity:0.984" fill="#a436da" d="M 445.5,485.5 C 464.167,485.5 482.833,485.5 501.5,485.5C 507.215,516.908 513.382,548.241 520,579.5C 518.648,548.217 518.148,516.883 518.5,485.5C 531.5,485.5 544.5,485.5 557.5,485.5C 557.5,538.833 557.5,592.167 557.5,645.5C 538.833,645.5 520.167,645.5 501.5,645.5C 495.528,614.142 489.362,582.809 483,551.5C 484.296,582.794 484.796,614.127 484.5,645.5C 471.5,645.5 458.5,645.5 445.5,645.5C 445.5,592.167 445.5,538.833 445.5,485.5 Z"/></g>
<g><path style="opacity:0.985" fill="#a336db" d="M 563.5,485.5 C 599.5,485.5 635.5,485.5 671.5,485.5C 670.084,497.157 668.751,508.824 667.5,520.5C 658.167,520.5 648.833,520.5 639.5,520.5C 639.5,562.167 639.5,603.833 639.5,645.5C 624.167,645.5 608.833,645.5 593.5,645.5C 593.5,603.833 593.5,562.167 593.5,520.5C 583.5,520.5 573.5,520.5 563.5,520.5C 563.5,508.833 563.5,497.167 563.5,485.5 Z"/></g>
<g><path style="opacity:0.988" fill="#a436da" d="M 675.5,485.5 C 706.174,485.167 736.841,485.5 767.5,486.5C 765.554,496.785 763.888,507.118 762.5,517.5C 748.833,517.5 735.167,517.5 721.5,517.5C 721.5,527.833 721.5,538.167 721.5,548.5C 733.5,548.5 745.5,548.5 757.5,548.5C 757.5,559.167 757.5,569.833 757.5,580.5C 745.5,580.5 733.5,580.5 721.5,580.5C 721.5,591.167 721.5,601.833 721.5,612.5C 736.167,612.5 750.833,612.5 765.5,612.5C 765.5,623.5 765.5,634.5 765.5,645.5C 735.5,645.5 705.5,645.5 675.5,645.5C 675.5,592.167 675.5,538.833 675.5,485.5 Z"/></g>
<g><path style="opacity:0.994" fill="#a337da" d="M 999.5,485.5 C 999.5,538.833 999.5,592.167 999.5,645.5C 984.5,645.5 969.5,645.5 954.5,645.5C 954.5,623.833 954.5,602.167 954.5,580.5C 947.5,580.5 940.5,580.5 933.5,580.5C 933.5,602.167 933.5,623.833 933.5,645.5C 917.833,645.5 902.167,645.5 886.5,645.5C 886.5,592.167 886.5,538.833 886.5,485.5C 902.167,485.5 917.833,485.5 933.5,485.5C 933.5,505.167 933.5,524.833 933.5,544.5C 940.5,544.5 947.5,544.5 954.5,544.5C 954.5,524.833 954.5,505.167 954.5,485.5C 969.5,485.5 984.5,485.5 999.5,485.5 Z"/></g>
</svg>
