<?xml version="1.0" encoding="UTF-8"?>
<!DOCTYPE svg PUBLIC "-//W3C//DTD SVG 1.1//EN" "http://www.w3.org/Graphics/SVG/1.1/DTD/svg11.dtd">
<svg xmlns="http://www.w3.org/2000/svg" version="1.1" width="1000px" height="224px" style="shape-rendering:geometricPrecision; text-rendering:geometricPrecision; image-rendering:optimizeQuality; fill-rule:evenodd; clip-rule:evenodd" xmlns:xlink="http://www.w3.org/1999/xlink">
<g><path style="opacity:0.892" fill="#6835f5" d="M 198.5,0.5 C 212.126,1.76636 216.626,8.76636 212,21.5C 210.261,23.7411 208.094,25.4078 205.5,26.5C 204.94,46.8672 204.107,67.2006 203,87.5C 201.719,91.237 199.219,93.737 195.5,95C 187.577,96.2355 179.577,96.9021 171.5,97C 166.926,101.697 161.593,102.697 155.5,100C 151.303,95.1392 150.803,89.9725 154,84.5C 160.292,78.9515 166.292,79.2849 172,85.5C 172.483,86.448 172.649,87.448 172.5,88.5C 179.175,88.6663 185.842,88.4996 192.5,88C 194.049,86.786 195.215,85.286 196,83.5C 196.833,64.4912 196.666,45.4912 195.5,26.5C 190.201,24.0787 187.534,19.912 187.5,14C 188.092,6.91526 191.758,2.41526 198.5,0.5 Z M 197.5,9.5 C 205.219,8.87012 207.219,11.8701 203.5,18.5C 196.035,19.3513 194.035,16.3513 197.5,9.5 Z"/></g>
<g><path style="opacity:0.931" fill="#6835f5" d="M 10.5,5.5 C 21.6917,3.55057 28.3584,8.05057 30.5,19C 30.2275,21.1509 29.5608,23.1509 28.5,25C 41.1667,34 53.8333,43 66.5,52C 72.9932,54.5353 79.6599,55.0353 86.5,53.5C 89.5192,46.9943 94.5192,44.8276 101.5,47C 109.013,52.9304 109.346,59.2638 102.5,66C 96.812,68.5201 91.812,67.5201 87.5,63C 81.2178,61.9082 74.8844,61.2415 68.5,61C 53.1814,52.3394 38.5147,42.6728 24.5,32C 17.5487,34.2128 11.0487,33.0462 5,28.5C -0.111435,19.2313 1.7219,11.5646 10.5,5.5 Z M 13.5,12.5 C 18.0058,12.2522 21.0058,14.2522 22.5,18.5C 21.0443,23.7281 17.7109,25.5615 12.5,24C 8.57523,19.8952 8.90857,16.0619 13.5,12.5 Z"/></g>
<g><path style="opacity:0.907" fill="#6835f5" d="M 74.5,9.5 C 83.0448,8.75519 88.3781,12.4219 90.5,20.5C 100.172,20.3335 109.839,20.5002 119.5,21C 122.196,21.6898 124.363,23.1898 126,25.5C 127.219,32.4211 127.886,39.4211 128,46.5C 135.858,52.4522 136.358,58.9522 129.5,66C 116.98,69.1487 111.813,64.3153 114,51.5C 115.351,49.981 116.851,48.6477 118.5,47.5C 119.809,41.2779 119.809,35.1112 118.5,29C 109.167,28.3333 99.8333,28.3333 90.5,29C 85.5954,37.6424 78.5954,39.9757 69.5,36C 62.1593,29.8108 60.9926,22.6441 66,14.5C 68.5308,12.0967 71.3641,10.4301 74.5,9.5 Z M 75.5,17.5 C 83.561,18.6982 85.2277,22.5315 80.5,29C 73.3333,30.5 70.5,27.6667 72,20.5C 73.1451,19.3636 74.3117,18.3636 75.5,17.5 Z"/></g>
<g><path style="opacity:0.981" fill="#6835f5" d="M 615.5,31.5 C 628.833,31.5 642.167,31.5 655.5,31.5C 655.4,50.1778 655.233,68.8444 655,87.5C 662.789,76.6054 673.456,71.2721 687,71.5C 709.24,71.9263 722.573,82.9263 727,104.5C 727.5,132.831 727.667,161.165 727.5,189.5C 714.167,189.5 700.833,189.5 687.5,189.5C 687.894,165.14 687.394,140.807 686,116.5C 683.282,104.891 676.448,101.391 665.5,106C 660.996,109.84 658.162,114.673 657,120.5C 655.576,143.465 655.076,166.465 655.5,189.5C 642.167,189.5 628.833,189.5 615.5,189.5C 615.5,136.833 615.5,84.1667 615.5,31.5 Z"/></g>
<g><path style="opacity:0.977" fill="#6835f5" d="M 811.5,38.5 C 827.946,37.4447 843.946,39.6114 859.5,45C 862.971,45.925 865.971,47.5916 868.5,50C 864.563,60.7015 860.23,71.2015 855.5,81.5C 810.443,61.367 789.61,76.0337 793,125.5C 796.742,151.633 811.576,161.8 837.5,156C 845.952,153.793 854.286,151.293 862.5,148.5C 862.5,160.167 862.5,171.833 862.5,183.5C 839.208,192.239 815.542,193.405 791.5,187C 768.606,177.423 755.439,160.257 752,135.5C 748.823,116.053 750.49,97.053 757,78.5C 768.106,55.5319 786.272,42.1986 811.5,38.5 Z"/></g>
<g><path style="opacity:0.985" fill="#6836f5" d="M 259.5,40.5 C 297.167,40.5 334.833,40.5 372.5,40.5C 372.5,51.8333 372.5,63.1667 372.5,74.5C 360.5,74.5 348.5,74.5 336.5,74.5C 336.5,112.833 336.5,151.167 336.5,189.5C 322.833,189.5 309.167,189.5 295.5,189.5C 295.5,151.167 295.5,112.833 295.5,74.5C 283.5,74.5 271.5,74.5 259.5,74.5C 259.5,63.1667 259.5,51.8333 259.5,40.5 Z"/></g>
<g><path style="opacity:0.978" fill="#6835f5" d="M 421.5,71.5 C 437.004,70.4596 451.337,73.9596 464.5,82C 473.453,89.0694 478.953,98.2361 481,109.5C 482.319,120.456 482.819,131.456 482.5,142.5C 459.167,142.5 435.833,142.5 412.5,142.5C 413.961,154.126 420.628,160.626 432.5,162C 446.888,162.689 460.554,159.856 473.5,153.5C 474.833,163.5 474.833,173.5 473.5,183.5C 450.901,192.355 427.901,193.522 404.5,187C 380.921,176.201 369.921,157.701 371.5,131.5C 370.638,96.3966 387.304,76.3966 421.5,71.5 Z M 426.5,99.5 C 438.175,99.1745 444.509,104.841 445.5,116.5C 434.495,116.667 423.495,116.5 412.5,116C 413.84,107.505 418.507,102.005 426.5,99.5 Z"/></g>
<g><path style="opacity:0.977" fill="#6835f5" d="M 553.5,71.5 C 565.827,71.2581 577.827,73.0915 589.5,77C 592.417,78.2328 595.084,79.7328 597.5,81.5C 593.593,91.0577 589.593,100.558 585.5,110C 577.172,106.955 568.505,104.789 559.5,103.5C 551.97,104.208 546.47,107.874 543,114.5C 538.849,125.045 538.515,135.712 542,146.5C 543.833,152.333 547.667,156.167 553.5,158C 567.685,159.66 580.685,156.493 592.5,148.5C 593.833,159.5 593.833,170.5 592.5,181.5C 571.572,192.791 549.905,194.291 527.5,186C 514.723,179.888 506.223,170.055 502,156.5C 496.199,135.839 497.866,115.839 507,96.5C 518.305,80.43 533.805,72.0966 553.5,71.5 Z"/></g>
<g><path style="opacity:0.981" fill="#6835f5" d="M 934.5,71.5 C 980.539,72.7165 1001.37,96.3832 997,142.5C 991.746,174.242 972.913,190.575 940.5,191.5C 902.605,189.251 883.272,169.085 882.5,131C 882.748,95.9343 900.081,76.101 934.5,71.5 Z M 935.5,102.5 C 946.178,100.746 952.678,105.079 955,115.5C 956.965,126.162 956.965,136.829 955,147.5C 951.721,159.39 944.221,163.224 932.5,159C 928.572,155.312 926.072,150.812 925,145.5C 922.451,132.857 923.451,120.523 928,108.5C 930.134,105.847 932.634,103.847 935.5,102.5 Z"/></g>
<g><path style="opacity:0.978" fill="#6835f4" d="M 89.5,73.5 C 103.504,73.3334 117.504,73.5001 131.5,74C 138.333,75.5 142.5,79.6667 144,86.5C 144.667,107.833 144.667,129.167 144,150.5C 143.004,156.159 139.838,159.993 134.5,162C 118.5,162.667 102.5,162.667 86.5,162C 82.7251,160.558 79.8917,158.058 78,154.5C 76.3752,131.55 76.0418,108.55 77,85.5C 79.1197,79.2106 83.2864,75.2106 89.5,73.5 Z"/></g>
<g><path style="opacity:0.927" fill="#6835f5" d="M 11.5,77.5 C 17.3238,76.5884 22.4905,77.9218 27,81.5C 28.5588,83.2166 29.3921,85.2166 29.5,87.5C 36.1998,87.83 42.8665,87.4967 49.5,86.5C 53.7257,80.2882 59.059,79.1215 65.5,83C 71.0882,89.7187 70.4216,95.7187 63.5,101C 57.4328,102.833 52.7661,101.167 49.5,96C 42.8417,95.5004 36.175,95.3337 29.5,95.5C 27.7154,101.916 23.382,105.25 16.5,105.5C 3.25986,102.636 -0.573478,94.969 5,82.5C 6.96514,80.4497 9.13181,78.783 11.5,77.5 Z M 13.5,85.5 C 21.7443,85.2276 24.0776,88.7276 20.5,96C 13.2445,98.6255 10.0778,96.1255 11,88.5C 12.045,87.6266 12.8783,86.6266 13.5,85.5 Z"/></g>
<g><path style="opacity:0.922" fill="#6835f5" d="M 29.5,103.5 C 37.5088,102.825 42.8422,106.159 45.5,113.5C 46.8734,113.657 48.2068,113.49 49.5,113C 52.7661,107.833 57.4328,106.167 63.5,108C 69.6332,112.409 70.7999,117.909 67,124.5C 60.4435,130.155 54.6101,129.489 49.5,122.5C 48.3112,121.571 46.9778,121.238 45.5,121.5C 42.9253,129.795 37.2587,132.962 28.5,131C 20.6953,127.219 17.862,121.053 20,112.5C 21.775,107.888 24.9417,104.888 29.5,103.5 Z M 29.5,111.5 C 37.7443,111.228 40.0776,114.728 36.5,122C 31.0226,124.595 27.6892,122.928 26.5,117C 26.8627,114.808 27.8627,112.974 29.5,111.5 Z"/></g>
<g><path style="opacity:0.928" fill="#6835f4" d="M 204.5,104.5 C 219.394,103.303 225.228,109.97 222,124.5C 215.841,133.309 208.341,134.642 199.5,128.5C 197.973,126.807 196.64,124.973 195.5,123C 187.5,122.333 179.5,122.333 171.5,123C 169.633,127.019 166.466,128.852 162,128.5C 152.981,127.492 149.648,122.492 152,113.5C 158.455,105.544 164.955,105.544 171.5,113.5C 179.479,114.665 187.479,114.832 195.5,114C 197.355,109.647 200.355,106.481 204.5,104.5 Z M 206.5,112.5 C 214.744,112.228 217.078,115.728 213.5,123C 206.244,125.626 203.078,123.126 204,115.5C 205.045,114.627 205.878,113.627 206.5,112.5 Z"/></g>
<g><path style="opacity:0.937" fill="#6835f5" d="M 55.5,133.5 C 67.1113,132.939 71.6113,138.273 69,149.5C 64.4022,154.645 58.9022,155.812 52.5,153C 50.8248,151.291 49.1581,149.624 47.5,148C 40.8333,147.333 34.1667,147.333 27.5,148C 22.7401,149.342 20.2401,152.508 20,157.5C 19.3333,166.167 19.3333,174.833 20,183.5C 29.7033,188.428 32.0366,195.762 27,205.5C 18.6089,213.699 10.6089,213.366 3,204.5C -0.7315,194.976 1.93517,187.976 11,183.5C 11.3333,174.833 11.6667,166.167 12,157.5C 12.2588,147.245 17.4255,141.411 27.5,140C 34.492,140.165 41.492,140.165 48.5,140C 50.0769,136.92 52.4102,134.753 55.5,133.5 Z M 12.5,191.5 C 20.7443,191.228 23.0776,194.728 19.5,202C 14.0226,204.595 10.6892,202.928 9.5,197C 9.86269,194.808 10.8627,192.974 12.5,191.5 Z"/></g>
<g><path style="opacity:0.939" fill="#6835f4" d="M 157.5,133.5 C 163.86,132.181 168.526,134.348 171.5,140C 180.196,139.051 188.863,139.385 197.5,141C 204.628,144.07 208.128,149.57 208,157.5C 208.333,166.167 208.667,174.833 209,183.5C 217.75,188.075 220.417,195.075 217,204.5C 210.512,212.331 203.012,213.498 194.5,208C 189.804,201.869 189.304,195.369 193,188.5C 194.981,186.343 197.314,184.676 200,183.5C 200.667,174.833 200.667,166.167 200,157.5C 200.21,152.048 197.71,148.882 192.5,148C 185.459,147.336 178.459,147.669 171.5,149C 165.434,155.675 158.934,156.175 152,150.5C 148.644,142.937 150.477,137.27 157.5,133.5 Z M 201.5,191.5 C 209.804,191.278 212.137,194.778 208.5,202C 203.316,204.574 199.983,203.074 198.5,197.5C 198.984,195.199 199.984,193.199 201.5,191.5 Z"/></g>
<g><path style="opacity:0.907" fill="#6835f5" d="M 93.5,169.5 C 104.671,169.494 108.838,174.828 106,185.5C 99.107,192.408 92.607,192.075 86.5,184.5C 76.5166,183.334 66.5166,183.168 56.5,184C 54.4963,186.841 53.9963,190.007 55,193.5C 66.0379,200.683 67.2046,209.183 58.5,219C 46.2264,224.194 38.5598,220.361 35.5,207.5C 36.1402,200.693 39.6402,196.026 46,193.5C 45.703,187.743 47.203,182.577 50.5,178C 52.087,177.138 53.7536,176.471 55.5,176C 66.1667,175.667 76.8333,175.333 87.5,175C 88.9227,172.469 90.9227,170.635 93.5,169.5 Z M 47.5,201.5 C 55.5204,201.392 57.8538,204.892 54.5,212C 47.2434,214.746 44.0768,212.246 45,204.5C 46.045,203.627 46.8783,202.627 47.5,201.5 Z"/></g>
<g><path style="opacity:0.926" fill="#6835f5" d="M 120.5,169.5 C 126.078,168.627 130.411,170.461 133.5,175C 140.167,175.333 146.833,175.667 153.5,176C 156.548,176.606 159.048,178.106 161,180.5C 162.126,184.749 162.792,189.082 163,193.5C 171.988,197.476 174.988,204.143 172,213.5C 166.553,221.815 159.387,223.648 150.5,219C 142.227,210.68 142.56,202.68 151.5,195C 152.448,194.517 153.448,194.351 154.5,194.5C 154.665,191.482 154.498,188.482 154,185.5C 153.5,185 153,184.5 152.5,184C 146.5,183.333 140.5,183.333 134.5,184C 130.383,190.546 124.716,192.212 117.5,189C 112.768,183.965 112.268,178.465 116,172.5C 117.652,171.601 119.152,170.601 120.5,169.5 Z M 156.5,201.5 C 162.19,200.726 165.024,203.059 165,208.5C 160.438,215.364 156.272,215.03 152.5,207.5C 153.467,205.21 154.8,203.21 156.5,201.5 Z"/></g>
</svg>
