<?xml version="1.0" encoding="UTF-8"?>
<!DOCTYPE svg PUBLIC "-//W3C//DTD SVG 1.1//EN" "http://www.w3.org/Graphics/SVG/1.1/DTD/svg11.dtd">
<svg xmlns="http://www.w3.org/2000/svg" version="1.1" width="1000px" height="623px" style="shape-rendering:geometricPrecision; text-rendering:geometricPrecision; image-rendering:optimizeQuality; fill-rule:evenodd; clip-rule:evenodd" xmlns:xlink="http://www.w3.org/1999/xlink">
<g><path style="opacity:0.933" fill="#76d4fc" d="M 592.5,-0.5 C 611.167,-0.5 629.833,-0.5 648.5,-0.5C 752.867,11.7735 833.034,62.1069 889,150.5C 937.935,237.118 945.935,327.452 913,421.5C 874.062,518.438 804.562,581.938 704.5,612C 685.954,616.921 667.288,620.421 648.5,622.5C 629.833,622.5 611.167,622.5 592.5,622.5C 488.767,610.08 408.934,560.08 353,472.5C 337.36,446.218 325.86,418.218 318.5,388.5C 320.833,388.5 323.167,388.5 325.5,388.5C 351.218,479.711 406.551,546.211 491.5,588C 573.121,624.098 655.454,625.764 738.5,593C 837.216,548.606 898.05,473.439 921,367.5C 938.424,256.103 906.591,161.603 825.5,84C 743.651,14.1222 649.985,-8.87777 544.5,15C 451.345,41.4977 383.845,98.331 342,185.5C 335.07,201.023 329.57,217.023 325.5,233.5C 323.167,233.5 320.833,233.5 318.5,233.5C 339.803,152.394 385.803,89.5611 456.5,45C 498.526,19.6671 543.86,4.5004 592.5,-0.5 Z"/></g>
<g><path style="opacity:0.987" fill="#76d4fc" d="M 403.5,247.5 C 409.833,247.5 416.167,247.5 422.5,247.5C 422.334,257.839 422.5,268.172 423,278.5C 439.868,271.017 453.534,275.017 464,290.5C 465,293.167 466,295.833 467,298.5C 467.5,314.83 467.667,331.163 467.5,347.5C 461.167,347.5 454.833,347.5 448.5,347.5C 448.667,332.496 448.5,317.496 448,302.5C 443.657,293.941 437.157,291.775 428.5,296C 426.622,297.543 425.122,299.376 424,301.5C 422.565,316.775 422.065,332.109 422.5,347.5C 416.167,347.5 409.833,347.5 403.5,347.5C 403.5,314.167 403.5,280.833 403.5,247.5 Z"/></g>
<g><path style="opacity:0.98" fill="#76d3fc" d="M 557.5,250.5 C 568.43,249.877 578.764,252.043 588.5,257C 591.148,258.649 593.481,260.649 595.5,263C 592.37,268.767 588.87,274.267 585,279.5C 568.419,266.491 553.085,267.825 539,283.5C 530.047,300.734 533.547,314.901 549.5,326C 562.578,331.878 574.411,330.044 585,320.5C 588.571,325.298 591.904,330.298 595,335.5C 595.749,336.635 595.583,337.635 594.5,338.5C 575.419,352.116 555.752,352.95 535.5,341C 515.518,325.042 509.684,304.876 518,280.5C 526.186,263.8 539.352,253.8 557.5,250.5 Z"/></g>
<g><path style="opacity:0.969" fill="#76d3fb" d="M 190.5,251.5 C 216.167,251.5 241.833,251.5 267.5,251.5C 267.5,258.167 267.5,264.833 267.5,271.5C 257.833,271.5 248.167,271.5 238.5,271.5C 238.5,296.833 238.5,322.167 238.5,347.5C 232.167,347.5 225.833,347.5 219.5,347.5C 219.5,322.167 219.5,296.833 219.5,271.5C 209.833,271.5 200.167,271.5 190.5,271.5C 190.5,264.833 190.5,258.167 190.5,251.5 Z"/></g>
<g><path style="opacity:0.979" fill="#76d3fc" d="M 287.5,273.5 C 303.645,271.152 316.645,276.318 326.5,289C 315.122,302.042 304.122,315.375 293.5,329C 301.687,329.667 308.021,326.501 312.5,319.5C 316.818,323.318 320.985,327.318 325,331.5C 325.667,332.5 325.667,333.5 325,334.5C 311.595,349.181 295.762,352.348 277.5,344C 259.457,330.156 254.957,312.656 264,291.5C 269.568,282.474 277.401,276.474 287.5,273.5 Z M 291.5,292.5 C 294.247,292.187 296.914,292.52 299.5,293.5C 293.409,302.013 287.076,310.346 280.5,318.5C 276.52,306.472 280.187,297.805 291.5,292.5 Z"/></g>
<g><path style="opacity:0.979" fill="#76d4fc" d="M 358.5,273.5 C 374.686,271.165 387.353,276.665 396.5,290C 391.624,294.708 386.957,299.541 382.5,304.5C 377.274,293.147 368.94,289.98 357.5,295C 346.919,304.838 346.252,315.171 355.5,326C 366.524,332.157 375.524,329.991 382.5,319.5C 386.818,323.318 390.985,327.318 395,331.5C 394.885,334.343 393.718,336.843 391.5,339C 376.52,350.443 360.853,351.443 344.5,342C 327.996,326.801 325.163,309.301 336,289.5C 341.739,281.58 349.239,276.247 358.5,273.5 Z"/></g>
<g><path style="opacity:0.981" fill="#76d4fc" d="M 625.5,273.5 C 655.929,271.763 670.762,286.096 670,316.5C 664.675,339.586 650.175,350.086 626.5,348C 604.804,341.132 595.304,326.299 598,303.5C 601.123,287.88 610.289,277.88 625.5,273.5 Z M 629.5,292.5 C 640.924,291.458 648.09,296.458 651,307.5C 651.787,322.713 644.62,329.88 629.5,329C 616.714,322.378 613.548,312.544 620,299.5C 622.529,296.115 625.696,293.782 629.5,292.5 Z"/></g>
<g><path style="opacity:0.982" fill="#76d3fb" d="M 765.5,273.5 C 791.625,272.553 805.958,285.053 808.5,311C 806.489,337.679 792.156,350.012 765.5,348C 761.737,347.08 758.237,345.58 755,343.5C 754.5,353.828 754.334,364.161 754.5,374.5C 748.167,374.5 741.833,374.5 735.5,374.5C 735.5,341.5 735.5,308.5 735.5,275.5C 737.199,275.34 738.866,275.506 740.5,276C 742.494,278.827 744.828,281.327 747.5,283.5C 752.992,279.091 758.992,275.758 765.5,273.5 Z M 766.5,292.5 C 785.744,292.638 792.578,301.971 787,320.5C 780.759,329.718 772.592,331.884 762.5,327C 754.59,320.429 752.424,312.262 756,302.5C 758.409,297.922 761.909,294.588 766.5,292.5 Z"/></g>
<g><path style="opacity:0.993" fill="#76d3fb" d="M 679.5,275.5 C 681.199,275.34 682.866,275.506 684.5,276C 686.34,278.669 688.34,281.169 690.5,283.5C 694.286,280.274 698.619,278.107 703.5,277C 711.493,276.5 719.493,276.334 727.5,276.5C 727.5,282.5 727.5,288.5 727.5,294.5C 720.426,294.161 713.426,294.661 706.5,296C 703.829,297.25 701.663,299.083 700,301.5C 698.548,316.762 698.048,332.095 698.5,347.5C 692.167,347.5 685.833,347.5 679.5,347.5C 679.5,323.5 679.5,299.5 679.5,275.5 Z"/></g>
</svg>
