<?xml version="1.0" encoding="UTF-8"?>
<!DOCTYPE svg PUBLIC "-//W3C//DTD SVG 1.1//EN" "http://www.w3.org/Graphics/SVG/1.1/DTD/svg11.dtd">
<svg xmlns="http://www.w3.org/2000/svg" version="1.1" width="1000px" height="356px" style="shape-rendering:geometricPrecision; text-rendering:geometricPrecision; image-rendering:optimizeQuality; fill-rule:evenodd; clip-rule:evenodd" xmlns:xlink="http://www.w3.org/1999/xlink">
<g><path style="opacity:0.927" fill="#fe0000" d="M 496.5,-0.5 C 498.833,-0.5 501.167,-0.5 503.5,-0.5C 510.426,2.16217 513.426,7.32884 512.5,15C 511.712,28.9403 508.879,42.4403 504,55.5C 501.002,59.3678 498.336,59.0345 496,54.5C 491.568,41.1744 488.735,27.5077 487.5,13.5C 487.512,6.78849 490.512,2.12182 496.5,-0.5 Z"/></g>
<g><path style="opacity:0.918" fill="#fe0000" d="M 445.5,20.5 C 448.688,20.6178 451.688,21.4511 454.5,23C 466.02,34.8538 474.686,48.5205 480.5,64C 478.772,67.9041 476.106,68.5707 472.5,66C 459.361,59.6841 447.528,51.5175 437,41.5C 432.356,31.2352 435.189,24.2352 445.5,20.5 Z"/></g>
<g><path style="opacity:0.925" fill="#fe0000" d="M 548.5,21.5 C 558.309,20.1525 563.976,24.3192 565.5,34C 565.385,36.7318 564.552,39.2318 563,41.5C 551.954,51.2775 539.788,59.4442 526.5,66C 524.19,66.4966 521.857,66.6633 519.5,66.5C 519.228,60.1488 521.062,54.4822 525,49.5C 530.333,42.1667 535.667,34.8333 541,27.5C 543.114,24.8792 545.614,22.8792 548.5,21.5 Z"/></g>
<g><path style="opacity:0.918" fill="#fe0000" d="M 494.5,71.5 C 509.815,70.6403 515.981,77.6403 513,92.5C 507.199,100.873 499.699,102.707 490.5,98C 484.688,92.8956 483.188,86.729 486,79.5C 488.074,75.9231 490.907,73.2565 494.5,71.5 Z"/></g>
<g><path style="opacity:0.922" fill="#fe0000" d="M 424.5,72.5 C 436.998,73.5957 449.331,75.7624 461.5,79C 464.618,80.0587 467.618,81.3921 470.5,83C 472.223,86.4079 471.223,88.7413 467.5,90C 452.877,94.9369 437.877,97.6036 422.5,98C 416.048,96.3767 412.715,92.21 412.5,85.5C 413.435,78.2349 417.435,73.9016 424.5,72.5 Z"/></g>
<g><path style="opacity:0.928" fill="#fe0000" d="M 565.5,73.5 C 570.599,73.1746 575.599,73.6746 580.5,75C 589.104,83.9707 588.104,91.6374 577.5,98C 562.442,98.2683 547.775,95.9349 533.5,91C 529.71,90.2297 527.877,88.063 528,84.5C 530.251,82.6227 532.751,81.1227 535.5,80C 545.539,77.3612 555.539,75.1945 565.5,73.5 Z"/></g>
<g><path style="opacity:0.924" fill="#fe0000" d="M 473.5,105.5 C 475.833,105.5 478.167,105.5 480.5,105.5C 480.699,108.941 480.199,112.274 479,115.5C 472.328,127.172 464.495,138.005 455.5,148C 444.124,153.477 437.124,150.144 434.5,138C 434.615,135.268 435.448,132.768 437,130.5C 448.247,120.741 460.414,112.408 473.5,105.5 Z"/></g>
<g><path style="opacity:0.923" fill="#fe0000" d="M 519.5,105.5 C 526.802,107.317 533.468,110.484 539.5,115C 546.961,120.793 554.128,126.959 561,133.5C 564.724,147.779 559.224,153.946 544.5,152C 534.448,141.59 526.281,129.756 520,116.5C 518.353,112.843 518.187,109.177 519.5,105.5 Z"/></g>
<g><path style="opacity:0.93" fill="#fe0000" d="M 498.5,114.5 C 500.144,114.286 501.644,114.62 503,115.5C 510.447,132.174 513.113,149.508 511,167.5C 503.928,174.106 496.928,174.106 490,167.5C 488.299,165.1 487.466,162.433 487.5,159.5C 488.543,148.366 490.376,137.366 493,126.5C 494.043,122.085 495.876,118.085 498.5,114.5 Z"/></g>
<g><path style="opacity:0.955" fill="#fe0000" d="M -0.5,228.5 C -0.5,222.833 -0.5,217.167 -0.5,211.5C 0.626252,201.945 1.95959,192.278 3.5,182.5C 77.1962,196.394 151.196,208.227 225.5,218C 226.578,218.674 227.245,219.674 227.5,221C 225.745,233.02 222.745,244.687 218.5,256C 211.781,255.827 205.114,254.993 198.5,253.5C 197.239,247.228 196.573,240.895 196.5,234.5C 188.575,233.149 180.742,231.482 173,229.5C 170.8,240.397 169.3,251.397 168.5,262.5C 180.165,262.87 191.832,263.204 203.5,263.5C 203.277,270.896 202.444,278.23 201,285.5C 189.315,282.802 177.482,280.802 165.5,279.5C 164.353,289.862 163.02,300.196 161.5,310.5C 170.192,311.171 178.859,311.171 187.5,310.5C 190.342,304.143 193.675,298.143 197.5,292.5C 204.094,294.219 210.761,295.552 217.5,296.5C 215.921,309.64 213.588,322.64 210.5,335.5C 176.137,331.413 141.804,327.08 107.5,322.5C 107.232,319.881 107.565,317.381 108.5,315C 113.047,312.56 117.713,310.393 122.5,308.5C 127.071,279.004 131.404,249.504 135.5,220C 131.427,217.809 127.094,216.309 122.5,215.5C 122.657,214.127 122.49,212.793 122,211.5C 119.445,223.386 116.112,235.053 112,246.5C 111.107,247.081 110.107,247.415 109,247.5C 103.059,246.539 97.2253,245.206 91.5,243.5C 92.6862,234.561 93.3528,225.561 93.5,216.5C 88.8768,215.553 84.3768,214.22 80,212.5C 74.7847,239.791 69.7847,267.125 65,294.5C 64.1859,296.902 64.3526,299.235 65.5,301.5C 68.7957,302.765 72.129,303.932 75.5,305C 77.2226,305.523 78.556,306.523 79.5,308C 78.8957,310.524 78.229,313.024 77.5,315.5C 75.2351,316.647 72.9018,316.814 70.5,316C 50.1667,312.333 29.8333,308.667 9.5,305C 8.22343,302.534 8.22343,300.034 9.5,297.5C 14.3848,295.372 19.3848,293.538 24.5,292C 25.6667,291.5 26.5,290.667 27,289.5C 32.1592,261.544 36.9926,233.544 41.5,205.5C 36.456,205.173 31.456,205.506 26.5,206.5C 23.9588,214.788 21.6255,223.122 19.5,231.5C 12.9024,230.067 6.23574,229.067 -0.5,228.5 Z"/></g>
<g><path style="opacity:0.954" fill="#fe0000" d="M 999.5,304.5 C 999.5,306.833 999.5,309.167 999.5,311.5C 965.135,316.647 930.802,321.981 896.5,327.5C 895.937,325.09 895.437,322.757 895,320.5C 899.5,316.667 904,312.833 908.5,309C 903.419,279.6 898.752,250.1 894.5,220.5C 889.352,221.074 884.518,220.407 880,218.5C 876.667,221.167 873.333,223.833 870,226.5C 862.206,261.805 854.539,297.138 847,332.5C 836.243,336.447 825.243,338.447 814,338.5C 797.438,304.377 780.605,270.377 763.5,236.5C 759.217,235.508 754.884,235.174 750.5,235.5C 750.751,232.091 750.417,228.758 749.5,225.5C 770.711,222.032 792.044,219.365 813.5,217.5C 814.167,219.819 814.334,222.153 814,224.5C 810.167,227.667 806.333,230.833 802.5,234C 809.462,249.426 816.296,264.926 823,280.5C 825.231,289.491 827.398,298.491 829.5,307.5C 835.422,280.89 841.089,254.223 846.5,227.5C 841.533,226.671 836.533,226.171 831.5,226C 830.544,222.606 830.211,219.106 830.5,215.5C 881.336,209.381 932.003,202.047 982.5,193.5C 983.831,203.624 984.831,213.791 985.5,224C 985.043,227.085 984.377,230.085 983.5,233C 977.992,233.779 972.492,234.612 967,235.5C 965.833,235.167 964.667,234.833 963.5,234.5C 961.235,228.872 959.069,223.206 957,217.5C 949.333,218.5 941.667,219.5 934,220.5C 934.517,231.275 936.017,241.942 938.5,252.5C 949.997,249.042 961.663,246.376 973.5,244.5C 974.221,251.544 975.221,258.544 976.5,265.5C 965.156,266.483 953.822,267.649 942.5,269C 941.692,269.308 941.025,269.808 940.5,270.5C 942.071,280.597 944.071,290.597 946.5,300.5C 954.429,298.184 962.429,296.184 970.5,294.5C 971.825,287.549 972.825,280.549 973.5,273.5C 980.863,273.053 988.196,272.386 995.5,271.5C 996.994,282.622 998.327,293.622 999.5,304.5 Z"/></g>
<g><path style="opacity:0.956" fill="#fe0000" d="M 279.5,221.5 C 301.277,218.256 320.777,223.256 338,236.5C 337.529,249.385 334.695,261.718 329.5,273.5C 322.235,272.294 314.901,271.627 307.5,271.5C 306.324,262.776 304.824,254.109 303,245.5C 297.141,242.434 290.974,240.6 284.5,240C 269.012,258.772 264.512,279.939 271,303.5C 275.543,315.21 284.043,321.876 296.5,323.5C 307.191,320.995 317.858,318.829 328.5,317C 330.974,322.862 331.974,328.862 331.5,335C 319.5,338.667 307.5,342.333 295.5,346C 247.417,344.913 225.917,320.413 231,272.5C 236.501,245.17 252.667,228.17 279.5,221.5 Z"/></g>
<g><path style="opacity:0.954" fill="#fe0000" d="M 718.5,221.5 C 736.648,256.463 754.315,291.796 771.5,327.5C 775.655,329.185 779.988,329.851 784.5,329.5C 784.423,333.215 784.756,336.881 785.5,340.5C 764.479,341.93 743.479,343.597 722.5,345.5C 721.558,345.392 720.725,345.059 720,344.5C 719.654,342.782 719.154,341.115 718.5,339.5C 722.347,335.819 726.347,332.319 730.5,329C 728.736,325.208 727.069,321.375 725.5,317.5C 723.667,317.167 721.833,316.833 720,316.5C 709.847,317.428 699.68,318.094 689.5,318.5C 688.404,323.38 687.071,328.214 685.5,333C 685.905,333.945 686.572,334.612 687.5,335C 691.222,335.238 694.889,335.738 698.5,336.5C 699.833,339.833 699.833,343.167 698.5,346.5C 681.884,348.377 665.218,349.544 648.5,350C 647.642,348.43 646.975,346.763 646.5,345C 650.6,340.351 655.433,336.518 661,333.5C 670.833,302.667 680.667,271.833 690.5,241C 688.767,238.042 687.767,234.875 687.5,231.5C 698.176,228.94 708.509,225.607 718.5,221.5 Z M 695.5,300.5 C 697.824,290.362 700.657,280.362 704,270.5C 708.372,280.076 712.872,289.576 717.5,299C 710.208,300.116 702.874,300.616 695.5,300.5 Z"/></g>
<g><path style="opacity:0.958" fill="#fe0000" d="M 536.5,355.5 C 534.5,355.5 532.5,355.5 530.5,355.5C 518.436,319.309 505.769,283.309 492.5,247.5C 488.313,246.443 484.146,245.443 480,244.5C 476.98,246.2 473.98,247.866 471,249.5C 469.278,279.492 467.778,309.492 466.5,339.5C 471.833,340.5 477.167,341.5 482.5,342.5C 482.276,346.179 481.942,349.846 481.5,353.5C 458.84,352.389 436.174,351.389 413.5,350.5C 413.337,348.143 413.503,345.81 414,343.5C 418.504,340.58 423.171,337.914 428,335.5C 428.931,324.284 429.764,313.117 430.5,302C 417.833,301 405.166,300.167 392.5,299.5C 392.008,311.828 391.675,324.161 391.5,336.5C 396.219,337.244 400.886,338.244 405.5,339.5C 406.489,343.107 406.823,346.774 406.5,350.5C 383.854,349.211 361.187,348.211 338.5,347.5C 338.149,345.131 337.982,342.797 338,340.5C 342.592,337.453 347.426,334.786 352.5,332.5C 354.471,302.195 355.804,271.862 356.5,241.5C 352.124,241.091 347.79,240.425 343.5,239.5C 343.5,235.833 343.5,232.167 343.5,228.5C 365.504,229.445 387.504,230.445 409.5,231.5C 410.363,233.895 410.363,236.229 409.5,238.5C 405.091,241.567 400.424,244.233 395.5,246.5C 394.422,257.811 393.755,269.144 393.5,280.5C 405.819,281.273 418.153,281.94 430.5,282.5C 431.18,271.679 431.847,260.845 432.5,250C 432.167,248.5 431.833,247 431.5,245.5C 427.068,244.416 422.734,243.082 418.5,241.5C 419.417,238.242 419.751,234.909 419.5,231.5C 441.484,232.666 463.484,233.666 485.5,234.5C 504.827,233.507 524.161,233.341 543.5,234C 544.591,236.064 544.758,238.231 544,240.5C 539.707,243.39 535.541,246.39 531.5,249.5C 536.332,265.494 541.166,281.494 546,297.5C 546.619,306.504 547.286,315.504 548,324.5C 553.324,304.87 558.491,285.204 563.5,265.5C 561.434,257.301 558.767,249.301 555.5,241.5C 567.252,237.747 579.252,234.747 591.5,232.5C 597.559,253.178 603.725,273.845 610,294.5C 610.534,303.51 611.201,312.51 612,321.5C 618.328,295.854 624.495,270.188 630.5,244.5C 625.167,243.833 619.833,243.167 614.5,242.5C 614.5,238.833 614.5,235.167 614.5,231.5C 631.838,231.382 649.172,231.048 666.5,230.5C 666.627,232.915 666.793,235.249 667,237.5C 662.333,240.512 658,243.846 654,247.5C 645.144,281.593 635.977,315.593 626.5,349.5C 615.934,351.821 605.267,353.487 594.5,354.5C 588.641,336.091 582.475,317.757 576,299.5C 572.457,317.005 568.29,334.339 563.5,351.5C 554.34,352.665 545.34,353.998 536.5,355.5 Z"/></g>
</svg>
