<?xml version="1.0" encoding="UTF-8"?>
<!DOCTYPE svg PUBLIC "-//W3C//DTD SVG 1.1//EN" "http://www.w3.org/Graphics/SVG/1.1/DTD/svg11.dtd">
<svg xmlns="http://www.w3.org/2000/svg" version="1.1" width="1000px" height="999px" style="shape-rendering:geometricPrecision; text-rendering:geometricPrecision; image-rendering:optimizeQuality; fill-rule:evenodd; clip-rule:evenodd" xmlns:xlink="http://www.w3.org/1999/xlink">
<g><path style="opacity:0.928" fill="#322785" d="M 471.5,-0.5 C 490.167,-0.5 508.833,-0.5 527.5,-0.5C 694.544,13.2378 825.044,88.9044 919,226.5C 968.855,304.566 995.688,389.899 999.5,482.5C 999.5,493.5 999.5,504.5 999.5,515.5C 989.901,679.898 919.234,810.731 787.5,908C 709.277,962.131 622.61,992.298 527.5,998.5C 508.833,998.5 490.167,998.5 471.5,998.5C 321.327,987.005 199.16,923.005 105,806.5C 39.2664,720.817 4.09977,623.817 -0.5,515.5C -0.5,504.5 -0.5,493.5 -0.5,482.5C 7.03451,339.614 63.3678,220.114 168.5,124C 255.389,48.9112 356.389,7.41115 471.5,-0.5 Z M 482.5,7.5 C 642.341,6.02788 774.175,65.3612 878,185.5C 971.872,303.304 1006.87,436.971 983,586.5C 952.187,737.764 870.353,851.931 737.5,929C 613.425,995.007 484.092,1007.67 349.5,967C 224.287,924.771 129.787,845.938 66,730.5C 5.06124,612.18 -7.60543,488.847 28,360.5C 67.9354,232.703 145.769,135.536 261.5,69C 330.516,31.498 404.183,10.998 482.5,7.5 Z"/></g>
<g><path style="opacity:0.999" fill="#332885" d="M 471.5,19.5 C 625.132,14.2864 753.965,67.6198 858,179.5C 952.969,289.952 991.969,417.952 975,563.5C 951.21,715.374 874.377,831.54 744.5,912C 632.89,975.85 514.223,993.85 388.5,966C 260.912,933.341 161.745,861.841 91,751.5C 24.6553,640.433 4.65528,521.433 31,394.5C 62.5363,262.704 135.37,160.871 249.5,89C 317.94,47.8932 391.94,24.7266 471.5,19.5 Z"/></g>
<g><path style="opacity:1" fill="#fdfdfe" d="M 436.5,438.5 C 435.957,438.56 435.624,438.893 435.5,439.5C 487.496,440.5 539.496,440.833 591.5,440.5C 597.487,442.613 598.987,446.613 596,452.5C 594.871,454.141 593.371,455.141 591.5,455.5C 539.496,455.167 487.496,455.5 435.5,456.5C 435.624,457.107 435.957,457.44 436.5,457.5C 446.165,468.668 455.665,480.001 465,491.5C 465.528,501.627 461.028,504.794 451.5,501C 440.969,488.308 430.302,475.808 419.5,463.5C 419.217,462.711 418.717,462.044 418,461.5C 417.5,473.829 417.333,486.162 417.5,498.5C 415.412,504.127 411.412,505.961 405.5,504C 403.951,502.786 402.785,501.286 402,499.5C 401.333,464.833 401.333,430.167 402,395.5C 405.013,390.465 409.18,389.298 414.5,392C 415.701,392.903 416.535,394.069 417,395.5C 417.333,408.5 417.667,421.5 418,434.5C 429.5,421 441,407.5 452.5,394C 457.62,391.494 461.786,392.661 465,397.5C 465.755,400.303 465.422,402.97 464,405.5C 454.999,416.665 445.832,427.665 436.5,438.5 Z"/></g>
<g><path style="opacity:1" fill="#e3e1ee" d="M 436.5,438.5 C 488.167,439.167 539.833,439.833 591.5,440.5C 539.496,440.833 487.496,440.5 435.5,439.5C 435.624,438.893 435.957,438.56 436.5,438.5 Z"/></g>
<g><path style="opacity:1" fill="#918bbd" d="M 591.5,455.5 C 539.833,456.167 488.167,456.833 436.5,457.5C 435.957,457.44 435.624,457.107 435.5,456.5C 487.496,455.5 539.496,455.167 591.5,455.5 Z"/></g>
<g><path style="opacity:1" fill="#645ba2" d="M 419.5,463.5 C 418.833,475.167 418.167,486.833 417.5,498.5C 417.333,486.162 417.5,473.829 418,461.5C 418.717,462.044 419.217,462.711 419.5,463.5 Z"/></g>
<g><path style="opacity:1" fill="#a5a0c9" d="M 364.5,524.5 C 364.5,551.167 364.5,577.833 364.5,604.5C 367.167,604.5 369.833,604.5 372.5,604.5C 372.171,591.323 372.505,578.323 373.5,565.5C 373.5,578.833 373.5,592.167 373.5,605.5C 370.167,605.5 366.833,605.5 363.5,605.5C 363.169,578.328 363.502,551.328 364.5,524.5 Z"/></g>
<g><path style="opacity:1" fill="#fcfbfd" d="M 364.5,524.5 C 367.167,524.5 369.833,524.5 372.5,524.5C 372.168,534.522 372.501,544.522 373.5,554.5C 374.107,554.376 374.44,554.043 374.5,553.5C 382.303,546.982 390.97,545.815 400.5,550C 403.832,552.491 406.332,555.658 408,559.5C 408.5,574.83 408.667,590.163 408.5,605.5C 405.5,605.5 402.5,605.5 399.5,605.5C 399.667,591.163 399.5,576.829 399,562.5C 398.315,559.943 396.815,558.109 394.5,557C 385.397,554.891 378.397,557.725 373.5,565.5C 372.505,578.323 372.171,591.323 372.5,604.5C 369.833,604.5 367.167,604.5 364.5,604.5C 364.5,577.833 364.5,551.167 364.5,524.5 Z"/></g>
<g><path style="opacity:1" fill="#9a95c3" d="M 372.5,524.5 C 373.167,534.167 373.833,543.833 374.5,553.5C 374.44,554.043 374.107,554.376 373.5,554.5C 372.501,544.522 372.168,534.522 372.5,524.5 Z"/></g>
<g><path style="opacity:1" fill="#958fbf" d="M 550.5,524.5 C 550.5,551.167 550.5,577.833 550.5,604.5C 553.167,604.5 555.833,604.5 558.5,604.5C 558.5,577.833 558.5,551.167 558.5,524.5C 559.498,551.328 559.831,578.328 559.5,605.5C 556.167,605.5 552.833,605.5 549.5,605.5C 549.169,578.328 549.502,551.328 550.5,524.5 Z"/></g>
<g><path style="opacity:1" fill="#fefefe" d="M 550.5,524.5 C 553.167,524.5 555.833,524.5 558.5,524.5C 558.5,551.167 558.5,577.833 558.5,604.5C 555.833,604.5 553.167,604.5 550.5,604.5C 550.5,577.833 550.5,551.167 550.5,524.5 Z"/></g>
<g><path style="opacity:1" fill="#f7f7fa" d="M 441.5,527.5 C 450.06,525.961 457.56,527.961 464,533.5C 465.908,536.206 466.741,539.206 466.5,542.5C 463.5,542.5 460.5,542.5 457.5,542.5C 457.128,538.957 455.128,536.79 451.5,536C 441.602,534.575 436.769,538.742 437,548.5C 438.458,550.96 440.291,553.127 442.5,555C 449.167,558.667 455.833,562.333 462.5,566C 471.895,571.64 475.062,579.806 472,590.5C 468.894,599.322 462.727,604.822 453.5,607C 441.172,608.92 431.006,605.087 423,595.5C 421.092,592.794 420.259,589.794 420.5,586.5C 422.787,586.276 424.953,585.609 427,584.5C 430.144,590.311 434.644,594.811 440.5,598C 449.078,600.203 456.245,598.037 462,591.5C 465.456,583.315 463.623,576.815 456.5,572C 449.342,568.588 442.342,564.922 435.5,561C 426.038,552.592 425.038,543.258 432.5,533C 435.596,531.128 438.596,529.295 441.5,527.5 Z"/></g>
<g><path style="opacity:1" fill="#f4f4f8" d="M 677.5,527.5 C 683.83,526.666 686.663,529.333 686,535.5C 682.333,539.5 678.667,539.5 675,535.5C 674.018,532.225 674.851,529.559 677.5,527.5 Z"/></g>
<g><path style="opacity:1" fill="#fefefe" d="M 223.5,537.5 C 222.503,559.66 222.169,581.994 222.5,604.5C 219.833,604.5 217.167,604.5 214.5,604.5C 214.5,582.167 214.5,559.833 214.5,537.5C 206.167,537.5 197.833,537.5 189.5,537.5C 189.5,534.833 189.5,532.167 189.5,529.5C 209.167,529.5 228.833,529.5 248.5,529.5C 248.5,532.167 248.5,534.833 248.5,537.5C 240.167,537.5 231.833,537.5 223.5,537.5 Z"/></g>
<g><path style="opacity:1" fill="#f8f8fb" d="M 636.5,535.5 C 639.5,535.5 642.5,535.5 645.5,535.5C 645.5,539.833 645.5,544.167 645.5,548.5C 651.167,548.5 656.833,548.5 662.5,548.5C 662.5,551.5 662.5,554.5 662.5,557.5C 656.833,557.5 651.167,557.5 645.5,557.5C 645.333,569.171 645.5,580.838 646,592.5C 646.785,594.286 647.951,595.786 649.5,597C 653.045,597.717 656.545,597.55 660,596.5C 665.762,600.365 665.595,603.531 659.5,606C 648.033,608.688 640.533,604.521 637,593.5C 636.5,574.17 636.333,554.836 636.5,535.5 Z"/></g>
<g><path style="opacity:1" fill="#dad8e8" d="M 223.5,537.5 C 223.5,560.167 223.5,582.833 223.5,605.5C 220.287,605.81 217.287,605.477 214.5,604.5C 217.167,604.5 219.833,604.5 222.5,604.5C 222.169,581.994 222.503,559.66 223.5,537.5 Z"/></g>
<g><path style="opacity:1" fill="#f8f7fb" d="M 267.5,547.5 C 288.517,548.527 297.517,559.527 294.5,580.5C 281.833,580.5 269.167,580.5 256.5,580.5C 257.318,595.259 264.984,600.759 279.5,597C 282.879,595.893 286.046,594.393 289,592.5C 291.052,594.056 292.552,596.056 293.5,598.5C 282.824,607.183 271.158,608.683 258.5,603C 250.101,596.697 246.101,588.197 246.5,577.5C 246.653,562.477 253.653,552.477 267.5,547.5 Z"/></g>
<g><path style="opacity:1" fill="#f7f7fa" d="M 324.5,548.5 C 331.391,547.901 338.058,548.735 344.5,551C 346.327,551.899 347.66,553.233 348.5,555C 347.376,557.411 345.876,559.578 344,561.5C 331.251,552.748 321.584,555.415 315,569.5C 313.603,577.231 314.603,584.564 318,591.5C 323.103,596.654 329.27,598.487 336.5,597C 341.205,596.323 345.372,594.49 349,591.5C 351.535,593.666 352.535,596.333 352,599.5C 341.416,606.045 330.25,607.212 318.5,603C 305.66,593.438 301.827,580.938 307,565.5C 310.77,557.561 316.603,551.895 324.5,548.5 Z"/></g>
<g><path style="opacity:1" fill="#f5f5f9" d="M 504.5,547.5 C 527.116,547.616 537.95,558.949 537,581.5C 533.229,598.974 522.396,607.141 504.5,606C 493.112,603.612 485.945,596.779 483,585.5C 479.6,566.614 486.767,553.947 504.5,547.5 Z"/></g>
<g><path style="opacity:1" fill="#f6f6fa" d="M 720.5,547.5 C 736.525,546.417 747.025,553.417 752,568.5C 755.099,582.206 751.266,593.373 740.5,602C 721.447,610.721 707.613,605.554 699,586.5C 695.317,567.178 702.484,554.178 720.5,547.5 Z"/></g>
<g><path style="opacity:1" fill="#fcfcfd" d="M 809.5,562.5 C 809.5,576.5 809.5,590.5 809.5,604.5C 806.833,604.5 804.167,604.5 801.5,604.5C 801.829,590.99 801.496,577.656 800.5,564.5C 799.705,558.347 796.205,555.68 790,556.5C 782.964,556.935 777.798,560.268 774.5,566.5C 773.505,578.989 773.171,591.656 773.5,604.5C 770.833,604.5 768.167,604.5 765.5,604.5C 765.829,589.99 765.496,575.657 764.5,561.5C 764.238,558.309 762.905,555.642 760.5,553.5C 762.149,551.35 763.982,549.35 766,547.5C 769.098,549.928 771.431,552.928 773,556.5C 780.625,548.448 789.792,546.281 800.5,550C 805.654,552.649 808.654,556.816 809.5,562.5 Z"/></g>
<g><path style="opacity:1" fill="#fbfbfc" d="M 610.5,587.5 C 611.495,575.345 611.829,563.011 611.5,550.5C 614.167,550.5 616.833,550.5 619.5,550.5C 619.171,564.677 619.504,578.677 620.5,592.5C 620.882,595.65 622.216,598.317 624.5,600.5C 622.851,602.65 621.018,604.65 619,606.5C 615.942,604.043 613.608,601.043 612,597.5C 609.221,601.612 605.388,604.112 600.5,605C 588.189,608.094 579.689,603.927 575,592.5C 574.5,578.171 574.333,563.837 574.5,549.5C 577.5,549.5 580.5,549.5 583.5,549.5C 583.333,562.837 583.5,576.171 584,589.5C 586.483,597.079 591.65,599.579 599.5,597C 604.567,595.431 608.234,592.264 610.5,587.5 Z"/></g>
<g><path style="opacity:1" fill="#ada9ce" d="M 620.5,592.5 C 619.504,578.677 619.171,564.677 619.5,550.5C 616.833,550.5 614.167,550.5 611.5,550.5C 611.829,563.011 611.495,575.345 610.5,587.5C 610.5,574.833 610.5,562.167 610.5,549.5C 613.833,549.5 617.167,549.5 620.5,549.5C 620.5,563.833 620.5,578.167 620.5,592.5 Z"/></g>
<g><path style="opacity:1" fill="#afaacf" d="M 675.5,549.5 C 678.833,549.5 682.167,549.5 685.5,549.5C 685.5,568.167 685.5,586.833 685.5,605.5C 682.167,605.5 678.833,605.5 675.5,605.5C 675.5,586.833 675.5,568.167 675.5,549.5 Z"/></g>
<g><path style="opacity:1" fill="#fefffe" d="M 676.5,550.5 C 679.167,550.5 681.833,550.5 684.5,550.5C 684.5,568.5 684.5,586.5 684.5,604.5C 681.833,604.5 679.167,604.5 676.5,604.5C 676.5,586.5 676.5,568.5 676.5,550.5 Z"/></g>
<g><path style="opacity:1" fill="#372c87" d="M 266.5,556.5 C 278.841,554.848 285.508,560.181 286.5,572.5C 276.478,572.832 266.478,572.499 256.5,571.5C 257.611,564.925 260.944,559.925 266.5,556.5 Z"/></g>
<g><path style="opacity:1" fill="#342985" d="M 503.5,556.5 C 514.744,554.173 522.578,558.173 527,568.5C 528.57,577.075 527.237,585.075 523,592.5C 517.344,597.193 510.844,598.693 503.5,597C 492.706,590.897 488.873,581.73 492,569.5C 494.3,563.706 498.133,559.373 503.5,556.5 Z"/></g>
<g><path style="opacity:1" fill="#342985" d="M 719.5,556.5 C 730.999,554.495 738.833,558.828 743,569.5C 744.946,578.62 743.112,586.787 737.5,594C 728.855,598.973 720.522,598.64 712.5,593C 707.349,584.78 706.182,575.946 709,566.5C 711.738,562.26 715.238,558.926 719.5,556.5 Z"/></g>
<g><path style="opacity:1" fill="#afa9cf" d="M 764.5,561.5 C 765.496,575.657 765.829,589.99 765.5,604.5C 768.167,604.5 770.833,604.5 773.5,604.5C 773.171,591.656 773.505,578.989 774.5,566.5C 774.5,579.5 774.5,592.5 774.5,605.5C 771.167,605.5 767.833,605.5 764.5,605.5C 764.5,590.833 764.5,576.167 764.5,561.5 Z"/></g>
<g><path style="opacity:1" fill="#ada8ce" d="M 809.5,562.5 C 810.496,576.657 810.829,590.99 810.5,605.5C 807.167,605.5 803.833,605.5 800.5,605.5C 800.5,591.833 800.5,578.167 800.5,564.5C 801.496,577.656 801.829,590.99 801.5,604.5C 804.167,604.5 806.833,604.5 809.5,604.5C 809.5,590.5 809.5,576.5 809.5,562.5 Z"/></g>
</svg>
