<?xml version="1.0" standalone="no"?>
<!DOCTYPE svg PUBLIC "-//W3C//DTD SVG 20010904//EN"
 "http://www.w3.org/TR/2001/REC-SVG-20010904/DTD/svg10.dtd">
<svg version="1.0" xmlns="http://www.w3.org/2000/svg"
 width="1000.000000pt" height="750.000000pt" viewBox="0 0 1000.000000 750.000000"
 preserveAspectRatio="xMidYMid meet">

<g transform="translate(0.000000,750.000000) scale(0.100000,-0.100000)"
fill="#000000" stroke="none">
<path d="M4820 6314 c-19 -2 -78 -9 -130 -14 -221 -24 -486 -96 -710 -192
-668 -286 -1193 -861 -1419 -1553 -22 -66 -46 -148 -54 -182 l-14 -63 32 0
c31 0 32 1 50 78 50 214 198 550 330 747 393 587 981 970 1682 1097 114 20
159 23 413 23 254 0 299 -3 413 -23 711 -128 1306 -521 1695 -1120 131 -201
268 -515 318 -724 17 -77 18 -78 49 -78 l32 0 -14 63 c-23 97 -81 272 -130
387 -190 448 -526 853 -933 1124 -334 223 -712 364 -1110 416 -88 12 -438 21
-500 14z"/>
<path d="M4906 4100 c-98 -38 -157 -121 -157 -221 -1 -125 64 -192 195 -202
77 -6 109 -25 90 -55 -17 -27 -137 -29 -205 -3 -29 12 -56 17 -60 13 -4 -4
-11 -48 -14 -98 l-7 -92 53 -20 c97 -36 142 -44 202 -38 159 16 257 116 257
262 0 123 -59 181 -196 191 -85 7 -115 22 -98 50 18 29 90 38 170 20 38 -8 70
-15 71 -14 1 1 3 47 5 102 l3 99 -40 12 c-64 20 -211 16 -269 -6z"/>
<path d="M6588 4111 c-32 -5 -78 -14 -102 -21 -43 -12 -45 -15 -50 -54 -3 -22
-8 -175 -11 -338 l-5 -298 104 0 103 0 8 100 c6 97 7 100 32 106 34 9 42 -2
82 -119 l32 -94 97 19 c53 11 103 21 110 23 8 3 1 24 -23 67 -20 35 -46 82
-57 104 l-21 42 37 33 c56 49 77 98 77 180 1 116 -42 180 -154 229 -53 24
-171 33 -259 21z m159 -176 c32 -23 48 -78 31 -111 -16 -34 -53 -60 -95 -68
l-33 -5 0 93 c0 51 3 96 7 99 12 12 68 7 90 -8z"/>
<path d="M3202 4092 c-108 -39 -178 -127 -208 -260 -41 -184 24 -359 158 -426
67 -34 171 -36 252 -6 47 18 55 25 60 53 9 55 19 187 13 187 -3 0 -28 -12 -55
-26 -66 -34 -120 -41 -160 -20 -34 18 -59 54 -45 66 7 6 211 36 298 43 l30 2
3 74 c5 137 -49 256 -139 301 -58 30 -143 35 -207 12z m130 -209 c18 -21 31
-70 20 -77 -4 -2 -40 -8 -80 -12 l-73 -7 16 39 c18 46 49 74 80 74 12 0 29 -8
37 -17z"/>
<path d="M2436 4078 c-3 -13 -6 -65 -6 -115 l0 -93 75 0 75 0 0 -236 0 -235
98 7 c53 4 99 11 103 15 3 5 13 108 22 230 10 122 20 226 23 230 3 5 36 9 75
9 l69 0 0 83 c0 45 3 92 6 105 l6 22 -270 0 -270 0 -6 -22z"/>
<path d="M6033 4093 l-92 -4 -10 -32 c-11 -35 -150 -501 -174 -583 l-15 -51
121 -11 c136 -13 132 -14 143 56 l6 42 63 0 62 0 13 -55 c7 -30 18 -55 24 -55
6 0 56 7 111 15 55 8 105 15 111 15 7 0 -28 136 -85 335 l-96 335 -45 -2 c-25
-1 -86 -4 -137 -5z m68 -353 l17 -80 -40 0 -40 0 7 38 c16 90 27 133 33 128 3
-3 13 -42 23 -86z"/>
<path d="M3820 4081 c-128 -39 -214 -142 -241 -287 -30 -158 32 -307 159 -381
88 -52 310 -39 326 19 3 13 6 65 6 117 0 85 -2 93 -17 86 -113 -46 -172 -45
-215 5 -23 25 -28 40 -28 81 0 46 4 55 38 89 41 42 104 64 159 58 39 -5 39 -5
48 118 l6 82 -32 11 c-36 12 -170 13 -209 2z"/>
<path d="M4126 3928 c-3 -89 -8 -247 -12 -350 l-6 -188 111 0 111 0 0 79 c0
43 3 93 6 110 7 32 7 32 63 29 l56 -3 3 -102 3 -103 73 0 c40 0 94 3 120 6
l46 7 0 97 c0 53 -3 205 -7 338 l-6 242 -114 0 -113 0 0 -185 0 -185 -56 0
-57 0 8 180 7 180 -93 0 c-52 0 -104 3 -115 6 -21 6 -22 3 -28 -158z"/>
<path d="M5270 3975 l0 -115 75 0 75 0 1 -82 c1 -46 4 -148 8 -228 l6 -145
100 4 c55 1 101 4 103 5 2 2 21 390 22 444 0 21 4 22 75 22 l75 0 0 105 0 105
-270 0 -270 0 0 -115z"/>
<path d="M7030 3998 c0 -51 -3 -103 -6 -115 -6 -22 -4 -23 69 -23 l76 0 5 -42
c3 -24 8 -128 12 -231 l6 -188 102 7 c55 3 102 7 103 8 1 0 4 91 8 201 3 110
8 215 11 233 l5 32 74 0 75 0 0 105 0 105 -270 0 -270 0 0 -92z"/>
<path d="M2507 3128 c44 -192 150 -455 258 -646 400 -700 1079 -1160 1890
-1278 146 -22 512 -25 655 -6 485 65 922 249 1300 548 128 102 334 314 435
449 214 284 376 623 448 933 l14 62 -32 0 c-31 0 -32 -1 -49 -77 -50 -210
-187 -524 -318 -725 -390 -601 -992 -997 -1700 -1120 -117 -20 -165 -23 -408
-23 -243 0 -291 3 -408 23 -708 123 -1310 519 -1700 1120 -131 201 -268 515
-318 725 -17 76 -18 77 -49 77 l-32 0 14 -62z"/>
</g>
</svg>
